G04 #@! TF.GenerationSoftware,KiCad,Pcbnew,8.0.0*
G04 #@! TF.CreationDate,2024-03-07T23:13:23+01:00*
G04 #@! TF.ProjectId,ESP32j1mmb,45535033-326a-4316-9d6d-622e6b696361,rev?*
G04 #@! TF.SameCoordinates,Original*
G04 #@! TF.FileFunction,Soldermask,Bot*
G04 #@! TF.FilePolarity,Negative*
%FSLAX46Y46*%
G04 Gerber Fmt 4.6, Leading zero omitted, Abs format (unit mm)*
G04 Created by KiCad (PCBNEW 8.0.0) date 2024-03-07 23:13:23*
%MOMM*%
%LPD*%
G01*
G04 APERTURE LIST*
%ADD10C,1.200000*%
%ADD11R,1.700000X1.700000*%
%ADD12O,1.700000X1.700000*%
%ADD13C,0.600000*%
G04 APERTURE END LIST*
D10*
X88557500Y-107030000D03*
X90082500Y-107030000D03*
D11*
X105000000Y-100000000D03*
D12*
X105000000Y-102540000D03*
X105000000Y-105080000D03*
X105000000Y-107620000D03*
X105000000Y-110160000D03*
X105000000Y-112700000D03*
X105000000Y-115240000D03*
X105000000Y-117780000D03*
X105000000Y-120320000D03*
X105000000Y-122860000D03*
X105000000Y-125400000D03*
X105000000Y-127940000D03*
X105000000Y-130480000D03*
X105000000Y-133020000D03*
X105000000Y-135560000D03*
D11*
X75000000Y-100000000D03*
D12*
X75000000Y-102540000D03*
X75000000Y-105080000D03*
X75000000Y-107620000D03*
X75000000Y-110160000D03*
X75000000Y-112700000D03*
X75000000Y-115240000D03*
X75000000Y-117780000D03*
X75000000Y-120320000D03*
X75000000Y-122860000D03*
X75000000Y-125400000D03*
X75000000Y-127940000D03*
X75000000Y-130480000D03*
X75000000Y-133020000D03*
X75000000Y-135560000D03*
D11*
X97700000Y-135500000D03*
D12*
X95160000Y-135500000D03*
X92620000Y-135500000D03*
X90080000Y-135500000D03*
X87540000Y-135500000D03*
X85000000Y-135500000D03*
X82460000Y-135500000D03*
D13*
X81500000Y-132000000D03*
X98000000Y-133000000D03*
X77000000Y-124500000D03*
X100500000Y-129000000D03*
X77000000Y-99000000D03*
X101500000Y-99000000D03*
X99500000Y-119500000D03*
X79500000Y-120000000D03*
X95000000Y-122500000D03*
X95000000Y-130500000D03*
X81500000Y-122999994D03*
X85500000Y-121000000D03*
X89500000Y-132650000D03*
X99000000Y-121000000D03*
X99000012Y-122959606D03*
M02*
