G04 #@! TF.GenerationSoftware,KiCad,Pcbnew,8.0.0*
G04 #@! TF.CreationDate,2024-03-07T23:13:23+01:00*
G04 #@! TF.ProjectId,ESP32j1mmb,45535033-326a-4316-9d6d-622e6b696361,rev?*
G04 #@! TF.SameCoordinates,Original*
G04 #@! TF.FileFunction,Soldermask,Top*
G04 #@! TF.FilePolarity,Negative*
%FSLAX46Y46*%
G04 Gerber Fmt 4.6, Leading zero omitted, Abs format (unit mm)*
G04 Created by KiCad (PCBNEW 8.0.0) date 2024-03-07 23:13:23*
%MOMM*%
%LPD*%
G01*
G04 APERTURE LIST*
G04 Aperture macros list*
%AMRoundRect*
0 Rectangle with rounded corners*
0 $1 Rounding radius*
0 $2 $3 $4 $5 $6 $7 $8 $9 X,Y pos of 4 corners*
0 Add a 4 corners polygon primitive as box body*
4,1,4,$2,$3,$4,$5,$6,$7,$8,$9,$2,$3,0*
0 Add four circle primitives for the rounded corners*
1,1,$1+$1,$2,$3*
1,1,$1+$1,$4,$5*
1,1,$1+$1,$6,$7*
1,1,$1+$1,$8,$9*
0 Add four rect primitives between the rounded corners*
20,1,$1+$1,$2,$3,$4,$5,0*
20,1,$1+$1,$4,$5,$6,$7,0*
20,1,$1+$1,$6,$7,$8,$9,0*
20,1,$1+$1,$8,$9,$2,$3,0*%
G04 Aperture macros list end*
%ADD10RoundRect,0.375000X-0.625000X-0.375000X0.625000X-0.375000X0.625000X0.375000X-0.625000X0.375000X0*%
%ADD11RoundRect,0.500000X-0.500000X-1.400000X0.500000X-1.400000X0.500000X1.400000X-0.500000X1.400000X0*%
%ADD12R,1.500000X0.900000*%
%ADD13R,0.900000X1.500000*%
%ADD14C,0.600000*%
%ADD15C,1.200000*%
%ADD16R,4.200000X4.200000*%
%ADD17RoundRect,0.237500X-0.250000X-0.237500X0.250000X-0.237500X0.250000X0.237500X-0.250000X0.237500X0*%
%ADD18R,1.700000X1.700000*%
%ADD19O,1.700000X1.700000*%
%ADD20RoundRect,0.237500X0.237500X-0.300000X0.237500X0.300000X-0.237500X0.300000X-0.237500X-0.300000X0*%
%ADD21RoundRect,0.237500X0.287500X0.237500X-0.287500X0.237500X-0.287500X-0.237500X0.287500X-0.237500X0*%
G04 APERTURE END LIST*
D10*
X86700000Y-125200000D03*
X86700000Y-127500000D03*
D11*
X93000000Y-127500000D03*
D10*
X86700000Y-129800000D03*
D12*
X81250000Y-99690000D03*
X81250000Y-100960000D03*
X81250000Y-102230000D03*
X81250000Y-103500000D03*
X81250000Y-104770000D03*
X81250000Y-106040000D03*
X81250000Y-107310000D03*
X81250000Y-108580000D03*
X81250000Y-109850000D03*
X81250000Y-111120000D03*
X81250000Y-112390000D03*
X81250000Y-113660000D03*
X81250000Y-114930000D03*
X81250000Y-116200000D03*
D13*
X84290000Y-117450000D03*
X85560000Y-117450000D03*
X86830000Y-117450000D03*
X88100000Y-117450000D03*
X89370000Y-117450000D03*
X90640000Y-117450000D03*
X91910000Y-117450000D03*
X93180000Y-117450000D03*
X94450000Y-117450000D03*
X95720000Y-117450000D03*
D12*
X98750000Y-116200000D03*
X98750000Y-114930000D03*
X98750000Y-113660000D03*
X98750000Y-112390000D03*
X98750000Y-111120000D03*
X98750000Y-109850000D03*
X98750000Y-108580000D03*
X98750000Y-107310000D03*
X98750000Y-106040000D03*
X98750000Y-104770000D03*
X98750000Y-103500000D03*
X98750000Y-102230000D03*
X98750000Y-100960000D03*
X98750000Y-99690000D03*
D14*
X87795000Y-106267500D03*
X87795000Y-107792500D03*
X88557500Y-105505000D03*
D15*
X88557500Y-107030000D03*
D14*
X88557500Y-108555000D03*
X89320000Y-106267500D03*
D16*
X89320000Y-107030000D03*
D14*
X89320000Y-107792500D03*
X90082500Y-105505000D03*
D15*
X90082500Y-107030000D03*
D14*
X90082500Y-108555000D03*
X90845000Y-106267500D03*
X90845000Y-107792500D03*
D17*
X96437500Y-128912500D03*
X98262500Y-128912500D03*
D18*
X105000000Y-100000000D03*
D19*
X105000000Y-102540000D03*
X105000000Y-105080000D03*
X105000000Y-107620000D03*
X105000000Y-110160000D03*
X105000000Y-112700000D03*
X105000000Y-115240000D03*
X105000000Y-117780000D03*
X105000000Y-120320000D03*
X105000000Y-122860000D03*
X105000000Y-125400000D03*
X105000000Y-127940000D03*
X105000000Y-130480000D03*
X105000000Y-133020000D03*
X105000000Y-135560000D03*
D20*
X78500000Y-101362500D03*
X78500000Y-99637500D03*
D17*
X80587500Y-126000000D03*
X82412500Y-126000000D03*
D18*
X75000000Y-100000000D03*
D19*
X75000000Y-102540000D03*
X75000000Y-105080000D03*
X75000000Y-107620000D03*
X75000000Y-110160000D03*
X75000000Y-112700000D03*
X75000000Y-115240000D03*
X75000000Y-117780000D03*
X75000000Y-120320000D03*
X75000000Y-122860000D03*
X75000000Y-125400000D03*
X75000000Y-127940000D03*
X75000000Y-130480000D03*
X75000000Y-133020000D03*
X75000000Y-135560000D03*
D18*
X97700000Y-135500000D03*
D19*
X95160000Y-135500000D03*
X92620000Y-135500000D03*
X90080000Y-135500000D03*
X87540000Y-135500000D03*
X85000000Y-135500000D03*
X82460000Y-135500000D03*
D21*
X82455000Y-129000000D03*
X80705000Y-129000000D03*
D17*
X96437500Y-126000000D03*
X98262500Y-126000000D03*
D20*
X78500000Y-135362500D03*
X78500000Y-133637500D03*
D14*
X81500000Y-132000000D03*
X98000000Y-133000000D03*
X77000000Y-124500000D03*
X100500000Y-129000000D03*
X77000000Y-99000000D03*
X101500000Y-99000000D03*
X99500000Y-119500000D03*
X79500000Y-120000000D03*
X95000000Y-122500000D03*
X95000000Y-130500000D03*
X81500000Y-122999994D03*
X85500000Y-121000000D03*
X89500000Y-132650000D03*
X99000000Y-121000000D03*
X99000012Y-122959606D03*
M02*
