M48
; DRILL file {KiCad 8.0.0} date 2024-02-25T01:44:36+0100
; FORMAT={-:-/ absolute / metric / decimal}
; #@! TF.CreationDate,2024-02-25T01:44:36+01:00
; #@! TF.GenerationSoftware,Kicad,Pcbnew,8.0.0
; #@! TF.FileFunction,Plated,1,2,PTH
FMAT,2
METRIC
; #@! TA.AperFunction,Plated,PTH,ComponentDrill
T1C0.200
; #@! TA.AperFunction,Plated,PTH,ViaDrill
T2C0.300
; #@! TA.AperFunction,Plated,PTH,ComponentDrill
T3C0.800
; #@! TA.AperFunction,Plated,PTH,ComponentDrill
T4C1.000
%
G90
G05
T1
X87.795Y-106.267
X87.795Y-107.792
X88.557Y-105.505
X88.557Y-108.555
X89.32Y-106.267
X89.32Y-107.792
X90.082Y-105.505
X90.082Y-108.555
X90.845Y-106.267
X90.845Y-107.792
T2
X77.0Y-99.0
X77.0Y-124.5
X79.5Y-120.0
X81.5Y-123.0
X81.5Y-132.0
X85.5Y-121.0
X89.5Y-132.65
X95.0Y-122.5
X95.0Y-130.5
X98.0Y-133.0
X99.0Y-121.0
X99.0Y-122.96
X99.5Y-119.5
X100.5Y-129.0
X101.5Y-99.0
T3
X88.557Y-107.03
X90.082Y-107.03
T4
X75.0Y-100.0
X75.0Y-102.54
X75.0Y-105.08
X75.0Y-107.62
X75.0Y-110.16
X75.0Y-112.7
X75.0Y-115.24
X75.0Y-117.78
X75.0Y-120.32
X75.0Y-122.86
X75.0Y-125.4
X75.0Y-127.94
X75.0Y-130.48
X75.0Y-133.02
X75.0Y-135.56
X82.46Y-135.5
X85.0Y-135.5
X87.54Y-135.5
X90.08Y-135.5
X92.62Y-135.5
X95.16Y-135.5
X97.7Y-135.5
X105.0Y-100.0
X105.0Y-102.54
X105.0Y-105.08
X105.0Y-107.62
X105.0Y-110.16
X105.0Y-112.7
X105.0Y-115.24
X105.0Y-117.78
X105.0Y-120.32
X105.0Y-122.86
X105.0Y-125.4
X105.0Y-127.94
X105.0Y-130.48
X105.0Y-133.02
X105.0Y-135.56
M30
