G04 #@! TF.GenerationSoftware,KiCad,Pcbnew,8.0.0*
G04 #@! TF.CreationDate,2024-02-25T01:58:56+01:00*
G04 #@! TF.ProjectId,ESP32j1mmb,45535033-326a-4316-9d6d-622e6b696361,rev?*
G04 #@! TF.SameCoordinates,Original*
G04 #@! TF.FileFunction,Copper,L2,Bot*
G04 #@! TF.FilePolarity,Positive*
%FSLAX46Y46*%
G04 Gerber Fmt 4.6, Leading zero omitted, Abs format (unit mm)*
G04 Created by KiCad (PCBNEW 8.0.0) date 2024-02-25 01:58:56*
%MOMM*%
%LPD*%
G01*
G04 APERTURE LIST*
G04 #@! TA.AperFunction,ComponentPad*
%ADD10R,1.700000X1.700000*%
G04 #@! TD*
G04 #@! TA.AperFunction,ComponentPad*
%ADD11O,1.700000X1.700000*%
G04 #@! TD*
G04 #@! TA.AperFunction,HeatsinkPad*
%ADD12C,0.600000*%
G04 #@! TD*
G04 #@! TA.AperFunction,HeatsinkPad*
%ADD13C,1.200000*%
G04 #@! TD*
G04 #@! TA.AperFunction,ViaPad*
%ADD14C,0.600000*%
G04 #@! TD*
G04 #@! TA.AperFunction,Conductor*
%ADD15C,0.200000*%
G04 #@! TD*
G04 #@! TA.AperFunction,Conductor*
%ADD16C,0.400000*%
G04 #@! TD*
G04 APERTURE END LIST*
D10*
X105000000Y-100000000D03*
D11*
X105000000Y-102540000D03*
X105000000Y-105080000D03*
X105000000Y-107620000D03*
X105000000Y-110160000D03*
X105000000Y-112700000D03*
X105000000Y-115240000D03*
X105000000Y-117780000D03*
X105000000Y-120320000D03*
X105000000Y-122860000D03*
X105000000Y-125400000D03*
X105000000Y-127940000D03*
X105000000Y-130480000D03*
X105000000Y-133020000D03*
X105000000Y-135560000D03*
D10*
X75000000Y-100000000D03*
D11*
X75000000Y-102540000D03*
X75000000Y-105080000D03*
X75000000Y-107620000D03*
X75000000Y-110160000D03*
X75000000Y-112700000D03*
X75000000Y-115240000D03*
X75000000Y-117780000D03*
X75000000Y-120320000D03*
X75000000Y-122860000D03*
X75000000Y-125400000D03*
X75000000Y-127940000D03*
X75000000Y-130480000D03*
X75000000Y-133020000D03*
X75000000Y-135560000D03*
D10*
X97700000Y-135500000D03*
D11*
X95160000Y-135500000D03*
X92620000Y-135500000D03*
X90080000Y-135500000D03*
X87540000Y-135500000D03*
X85000000Y-135500000D03*
X82460000Y-135500000D03*
D12*
X87795000Y-106267500D03*
X87795000Y-107792500D03*
X88557500Y-105505000D03*
D13*
X88557500Y-107030000D03*
D12*
X88557500Y-108555000D03*
X89320000Y-106267500D03*
X89320000Y-107792500D03*
X90082500Y-105505000D03*
D13*
X90082500Y-107030000D03*
D12*
X90082500Y-108555000D03*
X90845000Y-106267500D03*
X90845000Y-107792500D03*
D14*
X98000000Y-133000000D03*
X81500000Y-132000000D03*
X77000000Y-124500000D03*
X79500000Y-120000000D03*
X77000000Y-99000000D03*
X101500000Y-99000000D03*
X99500000Y-119500000D03*
X100500000Y-129000000D03*
X95000000Y-122500000D03*
X95000000Y-130500000D03*
X89500000Y-132650000D03*
X99000012Y-122959606D03*
X99000000Y-121000000D03*
X85500000Y-121000000D03*
X81500000Y-122999994D03*
D15*
X99000012Y-124480012D02*
X99000012Y-122959606D01*
X105000000Y-130480000D02*
X99000012Y-124480012D01*
X99500000Y-121000000D02*
X99000000Y-121000000D01*
X101650000Y-123150000D02*
X99500000Y-121000000D01*
X101650000Y-124590000D02*
X101650000Y-123150000D01*
X105000000Y-127940000D02*
X101650000Y-124590000D01*
X83500006Y-122999994D02*
X81500000Y-122999994D01*
X85500000Y-121000000D02*
X83500006Y-122999994D01*
X103380000Y-107620000D02*
X89500000Y-121500000D01*
X89500000Y-121500000D02*
X89500000Y-132650000D01*
X105000000Y-107620000D02*
X103380000Y-107620000D01*
X78500000Y-131540000D02*
X82460000Y-135500000D01*
X78500000Y-103500000D02*
X78500000Y-131540000D01*
X75000000Y-100000000D02*
X78500000Y-103500000D01*
X92960000Y-133300000D02*
X95160000Y-135500000D01*
X89230761Y-133300000D02*
X92960000Y-133300000D01*
X88850000Y-132919239D02*
X89230761Y-133300000D01*
X88850000Y-121230000D02*
X88850000Y-132919239D01*
X105000000Y-105080000D02*
X88850000Y-121230000D01*
D16*
X99940000Y-130500000D02*
X105000000Y-135560000D01*
X95000000Y-130500000D02*
X99940000Y-130500000D01*
G04 #@! TA.AperFunction,Conductor*
G36*
X76549473Y-102400911D02*
G01*
X76564431Y-102413666D01*
X77863181Y-103712416D01*
X77896666Y-103773739D01*
X77899500Y-103800097D01*
X77899500Y-131453330D01*
X77899499Y-131453348D01*
X77899499Y-131619054D01*
X77899498Y-131619054D01*
X77899499Y-131619057D01*
X77940423Y-131771785D01*
X77965410Y-131815063D01*
X77986666Y-131851880D01*
X78019479Y-131908714D01*
X78019481Y-131908717D01*
X78138349Y-132027585D01*
X78138355Y-132027590D01*
X81127233Y-135016469D01*
X81160718Y-135077792D01*
X81159327Y-135136243D01*
X81124938Y-135264586D01*
X81124936Y-135264596D01*
X81104341Y-135499999D01*
X81104341Y-135500000D01*
X81124936Y-135735403D01*
X81124938Y-135735413D01*
X81186094Y-135963655D01*
X81186096Y-135963659D01*
X81186097Y-135963663D01*
X81265801Y-136134588D01*
X81285965Y-136177830D01*
X81285967Y-136177834D01*
X81327977Y-136237830D01*
X81421505Y-136371401D01*
X81588599Y-136538495D01*
X81674285Y-136598493D01*
X81782165Y-136674032D01*
X81782167Y-136674033D01*
X81782170Y-136674035D01*
X81973209Y-136763118D01*
X82025648Y-136809290D01*
X82044800Y-136876484D01*
X82024584Y-136943365D01*
X81971419Y-136988700D01*
X81920804Y-136999500D01*
X75667866Y-136999500D01*
X75600827Y-136979815D01*
X75555072Y-136927011D01*
X75545128Y-136857853D01*
X75574153Y-136794297D01*
X75615461Y-136763118D01*
X75677830Y-136734035D01*
X75871401Y-136598495D01*
X76038495Y-136431401D01*
X76174035Y-136237830D01*
X76273903Y-136023663D01*
X76335063Y-135795408D01*
X76355659Y-135560000D01*
X76335063Y-135324592D01*
X76283887Y-135133597D01*
X76273905Y-135096344D01*
X76273904Y-135096343D01*
X76273903Y-135096337D01*
X76174035Y-134882171D01*
X76162301Y-134865412D01*
X76038494Y-134688597D01*
X75871402Y-134521506D01*
X75871401Y-134521505D01*
X75685405Y-134391269D01*
X75641781Y-134336692D01*
X75634588Y-134267193D01*
X75666110Y-134204839D01*
X75685405Y-134188119D01*
X75871082Y-134058105D01*
X76038105Y-133891082D01*
X76173600Y-133697578D01*
X76273429Y-133483492D01*
X76273432Y-133483486D01*
X76330636Y-133270000D01*
X75433012Y-133270000D01*
X75465925Y-133212993D01*
X75500000Y-133085826D01*
X75500000Y-132954174D01*
X75465925Y-132827007D01*
X75433012Y-132770000D01*
X76330636Y-132770000D01*
X76330635Y-132769999D01*
X76273432Y-132556513D01*
X76273429Y-132556507D01*
X76173600Y-132342422D01*
X76173599Y-132342420D01*
X76038113Y-132148926D01*
X76038108Y-132148920D01*
X75871078Y-131981890D01*
X75685405Y-131851879D01*
X75641780Y-131797302D01*
X75634588Y-131727804D01*
X75666110Y-131665449D01*
X75685406Y-131648730D01*
X75871401Y-131518495D01*
X76038495Y-131351401D01*
X76174035Y-131157830D01*
X76273903Y-130943663D01*
X76335063Y-130715408D01*
X76355659Y-130480000D01*
X76335063Y-130244592D01*
X76282143Y-130047091D01*
X76273905Y-130016344D01*
X76273904Y-130016343D01*
X76273903Y-130016337D01*
X76174035Y-129802171D01*
X76154458Y-129774211D01*
X76038494Y-129608597D01*
X75871402Y-129441506D01*
X75871396Y-129441501D01*
X75685842Y-129311575D01*
X75642217Y-129256998D01*
X75635023Y-129187500D01*
X75666546Y-129125145D01*
X75685842Y-129108425D01*
X75708026Y-129092891D01*
X75871401Y-128978495D01*
X76038495Y-128811401D01*
X76174035Y-128617830D01*
X76273903Y-128403663D01*
X76335063Y-128175408D01*
X76355659Y-127940000D01*
X76335063Y-127704592D01*
X76282143Y-127507091D01*
X76273905Y-127476344D01*
X76273904Y-127476343D01*
X76273903Y-127476337D01*
X76174035Y-127262171D01*
X76038495Y-127068599D01*
X76038494Y-127068597D01*
X75871402Y-126901506D01*
X75871396Y-126901501D01*
X75685842Y-126771575D01*
X75642217Y-126716998D01*
X75635023Y-126647500D01*
X75666546Y-126585145D01*
X75685842Y-126568425D01*
X75708026Y-126552891D01*
X75871401Y-126438495D01*
X76038495Y-126271401D01*
X76174035Y-126077830D01*
X76273903Y-125863663D01*
X76335063Y-125635408D01*
X76355659Y-125400000D01*
X76335063Y-125164592D01*
X76282279Y-124967597D01*
X76273905Y-124936344D01*
X76273904Y-124936343D01*
X76273903Y-124936337D01*
X76174035Y-124722171D01*
X76136845Y-124669057D01*
X76038494Y-124528597D01*
X75871402Y-124361506D01*
X75871396Y-124361501D01*
X75685842Y-124231575D01*
X75642217Y-124176998D01*
X75635023Y-124107500D01*
X75666546Y-124045145D01*
X75685842Y-124028425D01*
X75708026Y-124012891D01*
X75871401Y-123898495D01*
X76038495Y-123731401D01*
X76174035Y-123537830D01*
X76273903Y-123323663D01*
X76335063Y-123095408D01*
X76355659Y-122860000D01*
X76335063Y-122624592D01*
X76283887Y-122433597D01*
X76273905Y-122396344D01*
X76273904Y-122396343D01*
X76273903Y-122396337D01*
X76174035Y-122182171D01*
X76168481Y-122174238D01*
X76038494Y-121988597D01*
X75871402Y-121821506D01*
X75871396Y-121821501D01*
X75685842Y-121691575D01*
X75642217Y-121636998D01*
X75635023Y-121567500D01*
X75666546Y-121505145D01*
X75685842Y-121488425D01*
X75708026Y-121472891D01*
X75871401Y-121358495D01*
X76038495Y-121191401D01*
X76174035Y-120997830D01*
X76273903Y-120783663D01*
X76335063Y-120555408D01*
X76355659Y-120320000D01*
X76335063Y-120084592D01*
X76283887Y-119893597D01*
X76273905Y-119856344D01*
X76273904Y-119856343D01*
X76273903Y-119856337D01*
X76174035Y-119642171D01*
X76038495Y-119448599D01*
X76038494Y-119448597D01*
X75871402Y-119281506D01*
X75871396Y-119281501D01*
X75685842Y-119151575D01*
X75642217Y-119096998D01*
X75635023Y-119027500D01*
X75666546Y-118965145D01*
X75685842Y-118948425D01*
X75708026Y-118932891D01*
X75871401Y-118818495D01*
X76038495Y-118651401D01*
X76174035Y-118457830D01*
X76273903Y-118243663D01*
X76335063Y-118015408D01*
X76355659Y-117780000D01*
X76335063Y-117544592D01*
X76283887Y-117353597D01*
X76273905Y-117316344D01*
X76273904Y-117316343D01*
X76273903Y-117316337D01*
X76174035Y-117102171D01*
X76038495Y-116908599D01*
X76038494Y-116908597D01*
X75871402Y-116741506D01*
X75871396Y-116741501D01*
X75685842Y-116611575D01*
X75642217Y-116556998D01*
X75635023Y-116487500D01*
X75666546Y-116425145D01*
X75685842Y-116408425D01*
X75708026Y-116392891D01*
X75871401Y-116278495D01*
X76038495Y-116111401D01*
X76174035Y-115917830D01*
X76273903Y-115703663D01*
X76335063Y-115475408D01*
X76355659Y-115240000D01*
X76335063Y-115004592D01*
X76283887Y-114813597D01*
X76273905Y-114776344D01*
X76273904Y-114776343D01*
X76273903Y-114776337D01*
X76174035Y-114562171D01*
X76038495Y-114368599D01*
X76038494Y-114368597D01*
X75871402Y-114201506D01*
X75871396Y-114201501D01*
X75685842Y-114071575D01*
X75642217Y-114016998D01*
X75635023Y-113947500D01*
X75666546Y-113885145D01*
X75685842Y-113868425D01*
X75708026Y-113852891D01*
X75871401Y-113738495D01*
X76038495Y-113571401D01*
X76174035Y-113377830D01*
X76273903Y-113163663D01*
X76335063Y-112935408D01*
X76355659Y-112700000D01*
X76335063Y-112464592D01*
X76283887Y-112273597D01*
X76273905Y-112236344D01*
X76273904Y-112236343D01*
X76273903Y-112236337D01*
X76174035Y-112022171D01*
X76038495Y-111828599D01*
X76038494Y-111828597D01*
X75871402Y-111661506D01*
X75871396Y-111661501D01*
X75685842Y-111531575D01*
X75642217Y-111476998D01*
X75635023Y-111407500D01*
X75666546Y-111345145D01*
X75685842Y-111328425D01*
X75708026Y-111312891D01*
X75871401Y-111198495D01*
X76038495Y-111031401D01*
X76174035Y-110837830D01*
X76273903Y-110623663D01*
X76335063Y-110395408D01*
X76355659Y-110160000D01*
X76335063Y-109924592D01*
X76283887Y-109733597D01*
X76273905Y-109696344D01*
X76273904Y-109696343D01*
X76273903Y-109696337D01*
X76174035Y-109482171D01*
X76038495Y-109288599D01*
X76038494Y-109288597D01*
X75871402Y-109121506D01*
X75871396Y-109121501D01*
X75685842Y-108991575D01*
X75642217Y-108936998D01*
X75635023Y-108867500D01*
X75666546Y-108805145D01*
X75685842Y-108788425D01*
X75763370Y-108734139D01*
X75871401Y-108658495D01*
X76038495Y-108491401D01*
X76174035Y-108297830D01*
X76273903Y-108083663D01*
X76335063Y-107855408D01*
X76355659Y-107620000D01*
X76335063Y-107384592D01*
X76283887Y-107193597D01*
X76273905Y-107156344D01*
X76273904Y-107156343D01*
X76273903Y-107156337D01*
X76174035Y-106942171D01*
X76038495Y-106748599D01*
X76038494Y-106748597D01*
X75871402Y-106581506D01*
X75871396Y-106581501D01*
X75685842Y-106451575D01*
X75642217Y-106396998D01*
X75635023Y-106327500D01*
X75666546Y-106265145D01*
X75685842Y-106248425D01*
X75739497Y-106210855D01*
X75871401Y-106118495D01*
X76038495Y-105951401D01*
X76174035Y-105757830D01*
X76273903Y-105543663D01*
X76335063Y-105315408D01*
X76355659Y-105080000D01*
X76335063Y-104844592D01*
X76283887Y-104653597D01*
X76273905Y-104616344D01*
X76273904Y-104616343D01*
X76273903Y-104616337D01*
X76174035Y-104402171D01*
X76038495Y-104208599D01*
X76038494Y-104208597D01*
X75871402Y-104041506D01*
X75871396Y-104041501D01*
X75685842Y-103911575D01*
X75642217Y-103856998D01*
X75635023Y-103787500D01*
X75666546Y-103725145D01*
X75685842Y-103708425D01*
X75708026Y-103692891D01*
X75871401Y-103578495D01*
X76038495Y-103411401D01*
X76174035Y-103217830D01*
X76273903Y-103003663D01*
X76335063Y-102775408D01*
X76355659Y-102540000D01*
X76353222Y-102512154D01*
X76366987Y-102443657D01*
X76415601Y-102393473D01*
X76483629Y-102377538D01*
X76549473Y-102400911D01*
G37*
G04 #@! TD.AperFunction*
G04 #@! TA.AperFunction,Conductor*
G36*
X103777948Y-108240185D02*
G01*
X103823292Y-108292097D01*
X103825965Y-108297830D01*
X103825966Y-108297831D01*
X103961501Y-108491395D01*
X103961506Y-108491402D01*
X104128597Y-108658493D01*
X104128603Y-108658498D01*
X104314158Y-108788425D01*
X104357783Y-108843002D01*
X104364977Y-108912500D01*
X104333454Y-108974855D01*
X104314158Y-108991575D01*
X104128597Y-109121505D01*
X103961505Y-109288597D01*
X103825965Y-109482169D01*
X103825964Y-109482171D01*
X103726098Y-109696335D01*
X103726094Y-109696344D01*
X103664938Y-109924586D01*
X103664936Y-109924596D01*
X103644341Y-110159999D01*
X103644341Y-110160000D01*
X103664936Y-110395403D01*
X103664938Y-110395413D01*
X103726094Y-110623655D01*
X103726096Y-110623659D01*
X103726097Y-110623663D01*
X103761319Y-110699196D01*
X103825965Y-110837830D01*
X103825967Y-110837834D01*
X103961501Y-111031395D01*
X103961506Y-111031402D01*
X104128597Y-111198493D01*
X104128603Y-111198498D01*
X104314158Y-111328425D01*
X104357783Y-111383002D01*
X104364977Y-111452500D01*
X104333454Y-111514855D01*
X104314158Y-111531575D01*
X104128597Y-111661505D01*
X103961505Y-111828597D01*
X103825965Y-112022169D01*
X103825964Y-112022171D01*
X103726098Y-112236335D01*
X103726094Y-112236344D01*
X103664938Y-112464586D01*
X103664936Y-112464596D01*
X103644341Y-112699999D01*
X103644341Y-112700000D01*
X103664936Y-112935403D01*
X103664938Y-112935413D01*
X103726094Y-113163655D01*
X103726096Y-113163659D01*
X103726097Y-113163663D01*
X103761319Y-113239196D01*
X103825965Y-113377830D01*
X103825967Y-113377834D01*
X103961501Y-113571395D01*
X103961506Y-113571402D01*
X104128597Y-113738493D01*
X104128603Y-113738498D01*
X104314158Y-113868425D01*
X104357783Y-113923002D01*
X104364977Y-113992500D01*
X104333454Y-114054855D01*
X104314158Y-114071575D01*
X104128597Y-114201505D01*
X103961505Y-114368597D01*
X103825965Y-114562169D01*
X103825964Y-114562171D01*
X103726098Y-114776335D01*
X103726094Y-114776344D01*
X103664938Y-115004586D01*
X103664936Y-115004596D01*
X103644341Y-115239999D01*
X103644341Y-115240000D01*
X103664936Y-115475403D01*
X103664938Y-115475413D01*
X103726094Y-115703655D01*
X103726096Y-115703659D01*
X103726097Y-115703663D01*
X103761319Y-115779196D01*
X103825965Y-115917830D01*
X103825967Y-115917834D01*
X103961501Y-116111395D01*
X103961506Y-116111402D01*
X104128597Y-116278493D01*
X104128603Y-116278498D01*
X104314158Y-116408425D01*
X104357783Y-116463002D01*
X104364977Y-116532500D01*
X104333454Y-116594855D01*
X104314158Y-116611575D01*
X104128597Y-116741505D01*
X103961505Y-116908597D01*
X103825965Y-117102169D01*
X103825964Y-117102171D01*
X103726098Y-117316335D01*
X103726094Y-117316344D01*
X103664938Y-117544586D01*
X103664936Y-117544596D01*
X103644341Y-117779999D01*
X103644341Y-117780000D01*
X103664936Y-118015403D01*
X103664938Y-118015413D01*
X103726094Y-118243655D01*
X103726096Y-118243659D01*
X103726097Y-118243663D01*
X103761319Y-118319196D01*
X103825965Y-118457830D01*
X103825967Y-118457834D01*
X103961501Y-118651395D01*
X103961506Y-118651402D01*
X104128597Y-118818493D01*
X104128603Y-118818498D01*
X104314158Y-118948425D01*
X104357783Y-119003002D01*
X104364977Y-119072500D01*
X104333454Y-119134855D01*
X104314158Y-119151575D01*
X104128597Y-119281505D01*
X103961505Y-119448597D01*
X103825965Y-119642169D01*
X103825964Y-119642171D01*
X103726098Y-119856335D01*
X103726094Y-119856344D01*
X103664938Y-120084586D01*
X103664936Y-120084596D01*
X103644341Y-120319999D01*
X103644341Y-120320000D01*
X103664936Y-120555403D01*
X103664938Y-120555413D01*
X103726094Y-120783655D01*
X103726096Y-120783659D01*
X103726097Y-120783663D01*
X103762293Y-120861285D01*
X103825965Y-120997830D01*
X103825967Y-120997834D01*
X103961501Y-121191395D01*
X103961506Y-121191402D01*
X104128597Y-121358493D01*
X104128603Y-121358498D01*
X104314158Y-121488425D01*
X104357783Y-121543002D01*
X104364977Y-121612500D01*
X104333454Y-121674855D01*
X104314158Y-121691575D01*
X104128597Y-121821505D01*
X103961505Y-121988597D01*
X103825965Y-122182169D01*
X103825964Y-122182171D01*
X103726098Y-122396335D01*
X103726094Y-122396344D01*
X103664938Y-122624586D01*
X103664936Y-122624596D01*
X103644341Y-122859999D01*
X103644341Y-122860000D01*
X103664936Y-123095403D01*
X103664938Y-123095413D01*
X103726094Y-123323655D01*
X103726096Y-123323659D01*
X103726097Y-123323663D01*
X103790543Y-123461868D01*
X103825965Y-123537830D01*
X103825967Y-123537834D01*
X103961501Y-123731395D01*
X103961506Y-123731402D01*
X104128597Y-123898493D01*
X104128603Y-123898498D01*
X104314158Y-124028425D01*
X104357783Y-124083002D01*
X104364977Y-124152500D01*
X104333454Y-124214855D01*
X104314158Y-124231575D01*
X104128597Y-124361505D01*
X103961505Y-124528597D01*
X103825965Y-124722169D01*
X103825964Y-124722171D01*
X103726098Y-124936335D01*
X103726094Y-124936344D01*
X103664938Y-125164586D01*
X103664936Y-125164596D01*
X103644341Y-125399999D01*
X103644341Y-125400000D01*
X103646777Y-125427844D01*
X103633010Y-125496344D01*
X103584395Y-125546528D01*
X103516367Y-125562461D01*
X103450523Y-125539086D01*
X103435568Y-125526333D01*
X102286819Y-124377584D01*
X102253334Y-124316261D01*
X102250500Y-124289903D01*
X102250500Y-123070945D01*
X102250500Y-123070943D01*
X102231489Y-122999994D01*
X102209577Y-122918215D01*
X102153299Y-122820739D01*
X102130520Y-122781284D01*
X102018716Y-122669480D01*
X102018715Y-122669479D01*
X102014385Y-122665149D01*
X102014374Y-122665139D01*
X99987590Y-120638355D01*
X99987588Y-120638352D01*
X99868717Y-120519481D01*
X99868709Y-120519475D01*
X99766936Y-120460717D01*
X99766934Y-120460716D01*
X99731790Y-120440425D01*
X99731789Y-120440424D01*
X99579054Y-120399498D01*
X99570997Y-120398438D01*
X99571287Y-120396232D01*
X99515372Y-120379814D01*
X99505097Y-120372445D01*
X99502262Y-120370184D01*
X99349523Y-120274211D01*
X99179254Y-120214631D01*
X99179249Y-120214630D01*
X99000004Y-120194435D01*
X98999996Y-120194435D01*
X98820750Y-120214630D01*
X98820745Y-120214631D01*
X98650476Y-120274211D01*
X98497737Y-120370184D01*
X98370184Y-120497737D01*
X98274211Y-120650476D01*
X98214631Y-120820745D01*
X98214630Y-120820750D01*
X98194435Y-120999996D01*
X98194435Y-121000003D01*
X98214630Y-121179249D01*
X98214631Y-121179254D01*
X98274211Y-121349523D01*
X98361490Y-121488425D01*
X98370184Y-121502262D01*
X98497738Y-121629816D01*
X98569417Y-121674855D01*
X98633875Y-121715357D01*
X98650478Y-121725789D01*
X98703994Y-121744515D01*
X98820745Y-121785368D01*
X98820750Y-121785369D01*
X98999996Y-121805565D01*
X99000000Y-121805565D01*
X99000004Y-121805565D01*
X99179249Y-121785369D01*
X99179252Y-121785368D01*
X99179255Y-121785368D01*
X99179256Y-121785367D01*
X99179259Y-121785367D01*
X99212100Y-121773875D01*
X99296006Y-121744514D01*
X99365782Y-121740952D01*
X99424640Y-121773875D01*
X101013181Y-123362416D01*
X101046666Y-123423739D01*
X101049500Y-123450097D01*
X101049500Y-124503330D01*
X101049499Y-124503348D01*
X101049499Y-124669054D01*
X101049498Y-124669054D01*
X101090423Y-124821786D01*
X101105977Y-124848724D01*
X101105978Y-124848729D01*
X101105980Y-124848729D01*
X101156560Y-124936337D01*
X101169479Y-124958714D01*
X101169481Y-124958717D01*
X101288349Y-125077585D01*
X101288355Y-125077590D01*
X103667233Y-127456468D01*
X103700718Y-127517791D01*
X103699327Y-127576241D01*
X103664939Y-127704583D01*
X103664936Y-127704596D01*
X103644341Y-127939999D01*
X103644341Y-127940000D01*
X103646777Y-127967844D01*
X103633010Y-128036344D01*
X103584395Y-128086528D01*
X103516367Y-128102461D01*
X103450523Y-128079086D01*
X103435568Y-128066333D01*
X99636831Y-124267596D01*
X99603346Y-124206273D01*
X99600512Y-124179915D01*
X99600512Y-123542018D01*
X99620197Y-123474979D01*
X99627567Y-123464703D01*
X99629822Y-123461873D01*
X99629828Y-123461868D01*
X99725801Y-123309128D01*
X99785380Y-123138861D01*
X99785381Y-123138855D01*
X99805577Y-122959609D01*
X99805577Y-122959602D01*
X99785381Y-122780356D01*
X99785380Y-122780351D01*
X99725801Y-122610084D01*
X99629828Y-122457344D01*
X99502274Y-122329790D01*
X99487971Y-122320803D01*
X99349535Y-122233817D01*
X99179266Y-122174237D01*
X99179261Y-122174236D01*
X99000016Y-122154041D01*
X99000008Y-122154041D01*
X98820762Y-122174236D01*
X98820757Y-122174237D01*
X98650488Y-122233817D01*
X98497749Y-122329790D01*
X98370196Y-122457343D01*
X98274223Y-122610082D01*
X98214643Y-122780351D01*
X98214642Y-122780356D01*
X98194447Y-122959602D01*
X98194447Y-122959609D01*
X98214642Y-123138855D01*
X98214643Y-123138860D01*
X98274223Y-123309129D01*
X98370197Y-123461869D01*
X98372457Y-123464703D01*
X98373346Y-123466881D01*
X98373901Y-123467764D01*
X98373746Y-123467861D01*
X98398867Y-123529389D01*
X98399512Y-123542018D01*
X98399512Y-124393342D01*
X98399511Y-124393360D01*
X98399511Y-124559066D01*
X98399510Y-124559066D01*
X98399511Y-124559069D01*
X98440435Y-124711797D01*
X98446423Y-124722169D01*
X98469370Y-124761912D01*
X98469371Y-124761916D01*
X98469372Y-124761916D01*
X98519491Y-124848726D01*
X98519493Y-124848729D01*
X98638361Y-124967597D01*
X98638367Y-124967602D01*
X103667233Y-129996468D01*
X103700718Y-130057791D01*
X103699327Y-130116241D01*
X103664939Y-130244583D01*
X103664936Y-130244596D01*
X103644341Y-130479999D01*
X103644341Y-130480000D01*
X103664936Y-130715403D01*
X103664938Y-130715413D01*
X103726094Y-130943655D01*
X103726096Y-130943659D01*
X103726097Y-130943663D01*
X103761319Y-131019196D01*
X103825965Y-131157830D01*
X103825967Y-131157834D01*
X103929410Y-131305565D01*
X103944827Y-131327583D01*
X103961501Y-131351395D01*
X103961506Y-131351402D01*
X104128597Y-131518493D01*
X104128603Y-131518498D01*
X104314594Y-131648730D01*
X104358219Y-131703307D01*
X104365413Y-131772805D01*
X104333890Y-131835160D01*
X104314595Y-131851880D01*
X104128922Y-131981890D01*
X104128920Y-131981891D01*
X103961891Y-132148920D01*
X103961886Y-132148926D01*
X103826400Y-132342420D01*
X103826399Y-132342422D01*
X103726570Y-132556507D01*
X103726567Y-132556513D01*
X103669364Y-132769999D01*
X103669364Y-132770000D01*
X104566988Y-132770000D01*
X104534075Y-132827007D01*
X104500000Y-132954174D01*
X104500000Y-133085826D01*
X104534075Y-133212993D01*
X104566988Y-133270000D01*
X103752019Y-133270000D01*
X103684980Y-133250315D01*
X103664338Y-133233681D01*
X100386546Y-129955888D01*
X100386545Y-129955887D01*
X100271807Y-129879222D01*
X100144332Y-129826421D01*
X100144322Y-129826418D01*
X100008996Y-129799500D01*
X100008994Y-129799500D01*
X100008993Y-129799500D01*
X95425494Y-129799500D01*
X95359523Y-129780494D01*
X95349525Y-129774212D01*
X95179254Y-129714631D01*
X95179249Y-129714630D01*
X95000004Y-129694435D01*
X94999996Y-129694435D01*
X94820750Y-129714630D01*
X94820745Y-129714631D01*
X94650476Y-129774211D01*
X94497737Y-129870184D01*
X94370184Y-129997737D01*
X94274211Y-130150476D01*
X94214631Y-130320745D01*
X94214630Y-130320750D01*
X94194435Y-130499996D01*
X94194435Y-130500003D01*
X94214630Y-130679249D01*
X94214631Y-130679254D01*
X94274211Y-130849523D01*
X94333359Y-130943655D01*
X94370184Y-131002262D01*
X94497738Y-131129816D01*
X94588080Y-131186582D01*
X94650474Y-131225787D01*
X94650478Y-131225789D01*
X94820745Y-131285368D01*
X94820750Y-131285369D01*
X94999996Y-131305565D01*
X95000000Y-131305565D01*
X95000004Y-131305565D01*
X95179249Y-131285369D01*
X95179252Y-131285368D01*
X95179255Y-131285368D01*
X95349522Y-131225789D01*
X95350488Y-131225181D01*
X95359523Y-131219506D01*
X95425494Y-131200500D01*
X99598481Y-131200500D01*
X99665520Y-131220185D01*
X99686162Y-131236819D01*
X103637348Y-135188005D01*
X103670833Y-135249328D01*
X103669442Y-135307778D01*
X103664939Y-135324584D01*
X103664936Y-135324597D01*
X103644341Y-135559999D01*
X103644341Y-135560000D01*
X103664936Y-135795403D01*
X103664938Y-135795413D01*
X103726094Y-136023655D01*
X103726096Y-136023659D01*
X103726097Y-136023663D01*
X103797988Y-136177834D01*
X103825965Y-136237830D01*
X103825967Y-136237834D01*
X103919493Y-136371402D01*
X103961505Y-136431401D01*
X104128599Y-136598495D01*
X104225384Y-136666265D01*
X104322165Y-136734032D01*
X104322167Y-136734033D01*
X104322170Y-136734035D01*
X104384539Y-136763118D01*
X104436978Y-136809290D01*
X104456130Y-136876484D01*
X104435914Y-136943365D01*
X104382749Y-136988700D01*
X104332134Y-136999500D01*
X98890103Y-136999500D01*
X98823064Y-136979815D01*
X98777309Y-136927011D01*
X98767365Y-136857853D01*
X98796390Y-136794297D01*
X98815792Y-136776234D01*
X98875240Y-136731730D01*
X98907546Y-136707546D01*
X98993796Y-136592331D01*
X99044091Y-136457483D01*
X99050500Y-136397873D01*
X99050499Y-134602128D01*
X99044091Y-134542517D01*
X99042810Y-134539083D01*
X98993797Y-134407671D01*
X98993793Y-134407664D01*
X98907547Y-134292455D01*
X98907544Y-134292452D01*
X98792335Y-134206206D01*
X98792328Y-134206202D01*
X98657482Y-134155908D01*
X98657483Y-134155908D01*
X98597883Y-134149501D01*
X98597881Y-134149500D01*
X98597873Y-134149500D01*
X98597864Y-134149500D01*
X96802129Y-134149500D01*
X96802123Y-134149501D01*
X96742516Y-134155908D01*
X96607671Y-134206202D01*
X96607664Y-134206206D01*
X96492455Y-134292452D01*
X96492452Y-134292455D01*
X96406206Y-134407664D01*
X96406203Y-134407669D01*
X96357189Y-134539083D01*
X96315317Y-134595016D01*
X96249853Y-134619433D01*
X96181580Y-134604581D01*
X96153326Y-134583430D01*
X96031402Y-134461506D01*
X96031395Y-134461501D01*
X95837834Y-134325967D01*
X95837830Y-134325965D01*
X95808300Y-134312195D01*
X95623663Y-134226097D01*
X95623659Y-134226096D01*
X95623655Y-134226094D01*
X95395413Y-134164938D01*
X95395403Y-134164936D01*
X95160001Y-134144341D01*
X95159999Y-134144341D01*
X94924596Y-134164936D01*
X94924583Y-134164939D01*
X94796241Y-134199327D01*
X94726392Y-134197664D01*
X94676468Y-134167233D01*
X93447590Y-132938355D01*
X93447588Y-132938352D01*
X93328717Y-132819481D01*
X93328716Y-132819480D01*
X93241904Y-132769360D01*
X93241904Y-132769359D01*
X93241900Y-132769358D01*
X93191785Y-132740423D01*
X93039057Y-132699499D01*
X92880943Y-132699499D01*
X92873347Y-132699499D01*
X92873331Y-132699500D01*
X90421956Y-132699500D01*
X90354917Y-132679815D01*
X90309162Y-132627011D01*
X90298736Y-132589384D01*
X90285369Y-132470749D01*
X90285368Y-132470745D01*
X90225788Y-132300476D01*
X90130562Y-132148926D01*
X90129816Y-132147738D01*
X90129814Y-132147736D01*
X90129813Y-132147734D01*
X90127550Y-132144896D01*
X90126659Y-132142715D01*
X90126111Y-132141842D01*
X90126264Y-132141745D01*
X90101144Y-132080209D01*
X90100500Y-132067587D01*
X90100500Y-121800097D01*
X90120185Y-121733058D01*
X90136819Y-121712416D01*
X103592416Y-108256819D01*
X103653739Y-108223334D01*
X103680097Y-108220500D01*
X103710909Y-108220500D01*
X103777948Y-108240185D01*
G37*
G04 #@! TD.AperFunction*
G04 #@! TA.AperFunction,Conductor*
G36*
X106442539Y-98159685D02*
G01*
X106488294Y-98212489D01*
X106499500Y-98264000D01*
X106499500Y-98809897D01*
X106479815Y-98876936D01*
X106427011Y-98922691D01*
X106357853Y-98932635D01*
X106294297Y-98903610D01*
X106276234Y-98884208D01*
X106207547Y-98792455D01*
X106207544Y-98792452D01*
X106092335Y-98706206D01*
X106092328Y-98706202D01*
X105957482Y-98655908D01*
X105957483Y-98655908D01*
X105897883Y-98649501D01*
X105897881Y-98649500D01*
X105897873Y-98649500D01*
X105897864Y-98649500D01*
X104102129Y-98649500D01*
X104102123Y-98649501D01*
X104042516Y-98655908D01*
X103907671Y-98706202D01*
X103907664Y-98706206D01*
X103792455Y-98792452D01*
X103792452Y-98792455D01*
X103706206Y-98907664D01*
X103706202Y-98907671D01*
X103655908Y-99042517D01*
X103649501Y-99102116D01*
X103649501Y-99102123D01*
X103649500Y-99102135D01*
X103649500Y-100897870D01*
X103649501Y-100897876D01*
X103655908Y-100957483D01*
X103706202Y-101092328D01*
X103706206Y-101092335D01*
X103792452Y-101207544D01*
X103792455Y-101207547D01*
X103907664Y-101293793D01*
X103907671Y-101293797D01*
X104039081Y-101342810D01*
X104095015Y-101384681D01*
X104119432Y-101450145D01*
X104104580Y-101518418D01*
X104083430Y-101546673D01*
X103961503Y-101668600D01*
X103825965Y-101862169D01*
X103825964Y-101862171D01*
X103726098Y-102076335D01*
X103726094Y-102076344D01*
X103664938Y-102304586D01*
X103664936Y-102304596D01*
X103644341Y-102539999D01*
X103644341Y-102540000D01*
X103664936Y-102775403D01*
X103664938Y-102775413D01*
X103726094Y-103003655D01*
X103726096Y-103003659D01*
X103726097Y-103003663D01*
X103761319Y-103079196D01*
X103825965Y-103217830D01*
X103825967Y-103217834D01*
X103961501Y-103411395D01*
X103961506Y-103411402D01*
X104128597Y-103578493D01*
X104128603Y-103578498D01*
X104314158Y-103708425D01*
X104357783Y-103763002D01*
X104364977Y-103832500D01*
X104333454Y-103894855D01*
X104314158Y-103911575D01*
X104128597Y-104041505D01*
X103961505Y-104208597D01*
X103825965Y-104402169D01*
X103825964Y-104402171D01*
X103726098Y-104616335D01*
X103726094Y-104616344D01*
X103664938Y-104844586D01*
X103664936Y-104844596D01*
X103644341Y-105079999D01*
X103644341Y-105080000D01*
X103664936Y-105315403D01*
X103664938Y-105315413D01*
X103699327Y-105443756D01*
X103697664Y-105513606D01*
X103667233Y-105563530D01*
X88481286Y-120749478D01*
X88369481Y-120861282D01*
X88369479Y-120861285D01*
X88319361Y-120948094D01*
X88319359Y-120948096D01*
X88290425Y-120998209D01*
X88290424Y-120998210D01*
X88289944Y-121000003D01*
X88249499Y-121150943D01*
X88249499Y-121150945D01*
X88249499Y-121319046D01*
X88249500Y-121319059D01*
X88249500Y-132832569D01*
X88249499Y-132832587D01*
X88249499Y-132998293D01*
X88249498Y-132998293D01*
X88249499Y-132998296D01*
X88290423Y-133151024D01*
X88291138Y-133152262D01*
X88291139Y-133152263D01*
X88291147Y-133152278D01*
X88369477Y-133287951D01*
X88369481Y-133287956D01*
X88488349Y-133406824D01*
X88488355Y-133406829D01*
X88745900Y-133664374D01*
X88745910Y-133664385D01*
X88750240Y-133668715D01*
X88750241Y-133668716D01*
X88862045Y-133780520D01*
X88862047Y-133780521D01*
X88862051Y-133780524D01*
X88998970Y-133859573D01*
X88998977Y-133859577D01*
X89110780Y-133889534D01*
X89151703Y-133900500D01*
X89151704Y-133900500D01*
X90027050Y-133900500D01*
X90082285Y-133916719D01*
X90108518Y-133902931D01*
X90132950Y-133900500D01*
X92567050Y-133900500D01*
X92634089Y-133920185D01*
X92679844Y-133972989D01*
X92689788Y-134042147D01*
X92660763Y-134105703D01*
X92601985Y-134143477D01*
X92577858Y-134148028D01*
X92384596Y-134164936D01*
X92384586Y-134164938D01*
X92156344Y-134226094D01*
X92156335Y-134226098D01*
X91942171Y-134325964D01*
X91942169Y-134325965D01*
X91748597Y-134461505D01*
X91581505Y-134628597D01*
X91451575Y-134814158D01*
X91396998Y-134857783D01*
X91327500Y-134864977D01*
X91265145Y-134833454D01*
X91248425Y-134814158D01*
X91118494Y-134628597D01*
X90951402Y-134461506D01*
X90951395Y-134461501D01*
X90757834Y-134325967D01*
X90757830Y-134325965D01*
X90728300Y-134312195D01*
X90543663Y-134226097D01*
X90543659Y-134226096D01*
X90543655Y-134226094D01*
X90315413Y-134164938D01*
X90315403Y-134164936D01*
X90122142Y-134148028D01*
X90080344Y-134131677D01*
X90061985Y-134143477D01*
X90037858Y-134148028D01*
X89844596Y-134164936D01*
X89844586Y-134164938D01*
X89616344Y-134226094D01*
X89616335Y-134226098D01*
X89402171Y-134325964D01*
X89402169Y-134325965D01*
X89208597Y-134461505D01*
X89041505Y-134628597D01*
X88911575Y-134814158D01*
X88856998Y-134857783D01*
X88787500Y-134864977D01*
X88725145Y-134833454D01*
X88708425Y-134814158D01*
X88578494Y-134628597D01*
X88411402Y-134461506D01*
X88411395Y-134461501D01*
X88217834Y-134325967D01*
X88217830Y-134325965D01*
X88188300Y-134312195D01*
X88003663Y-134226097D01*
X88003659Y-134226096D01*
X88003655Y-134226094D01*
X87775413Y-134164938D01*
X87775403Y-134164936D01*
X87540001Y-134144341D01*
X87539999Y-134144341D01*
X87304596Y-134164936D01*
X87304586Y-134164938D01*
X87076344Y-134226094D01*
X87076335Y-134226098D01*
X86862171Y-134325964D01*
X86862169Y-134325965D01*
X86668597Y-134461505D01*
X86501508Y-134628594D01*
X86371269Y-134814595D01*
X86316692Y-134858219D01*
X86247193Y-134865412D01*
X86184839Y-134833890D01*
X86168119Y-134814594D01*
X86038113Y-134628926D01*
X86038108Y-134628920D01*
X85871082Y-134461894D01*
X85677578Y-134326399D01*
X85463492Y-134226570D01*
X85463486Y-134226567D01*
X85250000Y-134169364D01*
X85250000Y-135066988D01*
X85192993Y-135034075D01*
X85065826Y-135000000D01*
X84934174Y-135000000D01*
X84807007Y-135034075D01*
X84750000Y-135066988D01*
X84750000Y-134169364D01*
X84749999Y-134169364D01*
X84536513Y-134226567D01*
X84536507Y-134226570D01*
X84322422Y-134326399D01*
X84322420Y-134326400D01*
X84128926Y-134461886D01*
X84128920Y-134461891D01*
X83961891Y-134628920D01*
X83961890Y-134628922D01*
X83831880Y-134814595D01*
X83777303Y-134858219D01*
X83707804Y-134865412D01*
X83645450Y-134833890D01*
X83628730Y-134814594D01*
X83498494Y-134628597D01*
X83331402Y-134461506D01*
X83331395Y-134461501D01*
X83137834Y-134325967D01*
X83137830Y-134325965D01*
X83108300Y-134312195D01*
X82923663Y-134226097D01*
X82923659Y-134226096D01*
X82923655Y-134226094D01*
X82695413Y-134164938D01*
X82695403Y-134164936D01*
X82460001Y-134144341D01*
X82459999Y-134144341D01*
X82224596Y-134164936D01*
X82224586Y-134164938D01*
X82096243Y-134199327D01*
X82026393Y-134197664D01*
X81976469Y-134167233D01*
X79136819Y-131327583D01*
X79103334Y-131266260D01*
X79100500Y-131239902D01*
X79100500Y-122999994D01*
X80694435Y-122999994D01*
X80714630Y-123179243D01*
X80714631Y-123179248D01*
X80774211Y-123349517D01*
X80863227Y-123491184D01*
X80870184Y-123502256D01*
X80997738Y-123629810D01*
X81150478Y-123725783D01*
X81320745Y-123785362D01*
X81320750Y-123785363D01*
X81499996Y-123805559D01*
X81500000Y-123805559D01*
X81500004Y-123805559D01*
X81679249Y-123785363D01*
X81679252Y-123785362D01*
X81679255Y-123785362D01*
X81849522Y-123725783D01*
X82002262Y-123629810D01*
X82002267Y-123629804D01*
X82005097Y-123627549D01*
X82007275Y-123626659D01*
X82008158Y-123626105D01*
X82008255Y-123626259D01*
X82069783Y-123601139D01*
X82082412Y-123600494D01*
X83413337Y-123600494D01*
X83413353Y-123600495D01*
X83420949Y-123600495D01*
X83579060Y-123600495D01*
X83579063Y-123600495D01*
X83731791Y-123559571D01*
X83781910Y-123530633D01*
X83868722Y-123480514D01*
X83980526Y-123368710D01*
X83980526Y-123368708D01*
X83990734Y-123358501D01*
X83990735Y-123358498D01*
X85518536Y-121830698D01*
X85579857Y-121797215D01*
X85592310Y-121795163D01*
X85679255Y-121785368D01*
X85849522Y-121725789D01*
X86002262Y-121629816D01*
X86129816Y-121502262D01*
X86225789Y-121349522D01*
X86285368Y-121179255D01*
X86305565Y-121000000D01*
X86305363Y-120998210D01*
X86285369Y-120820750D01*
X86285368Y-120820745D01*
X86260431Y-120749480D01*
X86225789Y-120650478D01*
X86129816Y-120497738D01*
X86002262Y-120370184D01*
X85922395Y-120320000D01*
X85849523Y-120274211D01*
X85679254Y-120214631D01*
X85679249Y-120214630D01*
X85500004Y-120194435D01*
X85499996Y-120194435D01*
X85320750Y-120214630D01*
X85320745Y-120214631D01*
X85150476Y-120274211D01*
X84997737Y-120370184D01*
X84870184Y-120497737D01*
X84774210Y-120650478D01*
X84714630Y-120820750D01*
X84704837Y-120907667D01*
X84677770Y-120972081D01*
X84669298Y-120981464D01*
X83287590Y-122363175D01*
X83226267Y-122396660D01*
X83199909Y-122399494D01*
X82082412Y-122399494D01*
X82015373Y-122379809D01*
X82005097Y-122372439D01*
X82002263Y-122370179D01*
X82002262Y-122370178D01*
X81923682Y-122320803D01*
X81849523Y-122274205D01*
X81679254Y-122214625D01*
X81679249Y-122214624D01*
X81500004Y-122194429D01*
X81499996Y-122194429D01*
X81320750Y-122214624D01*
X81320745Y-122214625D01*
X81150476Y-122274205D01*
X80997737Y-122370178D01*
X80870184Y-122497731D01*
X80774211Y-122650470D01*
X80714632Y-122820738D01*
X80714630Y-122820744D01*
X80694435Y-122999990D01*
X80694435Y-122999994D01*
X79100500Y-122999994D01*
X79100500Y-109271661D01*
X88194392Y-109271661D01*
X88208192Y-109280333D01*
X88208191Y-109280333D01*
X88378361Y-109339878D01*
X88557497Y-109360062D01*
X88557503Y-109360062D01*
X88736638Y-109339878D01*
X88736641Y-109339877D01*
X88906805Y-109280334D01*
X88906806Y-109280334D01*
X88920606Y-109271661D01*
X89719392Y-109271661D01*
X89733192Y-109280333D01*
X89733191Y-109280333D01*
X89903361Y-109339878D01*
X90082497Y-109360062D01*
X90082503Y-109360062D01*
X90261638Y-109339878D01*
X90261641Y-109339877D01*
X90431805Y-109280334D01*
X90431806Y-109280334D01*
X90445606Y-109271661D01*
X90445606Y-109271660D01*
X90082501Y-108908553D01*
X90082500Y-108908553D01*
X89719392Y-109271660D01*
X89719392Y-109271661D01*
X88920606Y-109271661D01*
X88920606Y-109271660D01*
X88557501Y-108908553D01*
X88557500Y-108908553D01*
X88194392Y-109271660D01*
X88194392Y-109271661D01*
X79100500Y-109271661D01*
X79100500Y-108509161D01*
X87431892Y-108509161D01*
X87445692Y-108517833D01*
X87445691Y-108517833D01*
X87615861Y-108577378D01*
X87658482Y-108582180D01*
X87722896Y-108609246D01*
X87762451Y-108666840D01*
X87767819Y-108691515D01*
X87772621Y-108734138D01*
X87832165Y-108904304D01*
X87840838Y-108918107D01*
X88184055Y-108574891D01*
X88457500Y-108574891D01*
X88472724Y-108611645D01*
X88500855Y-108639776D01*
X88537609Y-108655000D01*
X88577391Y-108655000D01*
X88614145Y-108639776D01*
X88642276Y-108611645D01*
X88657500Y-108574891D01*
X88657500Y-108555000D01*
X88911053Y-108555000D01*
X89274160Y-108918106D01*
X89306122Y-108914506D01*
X89333885Y-108914507D01*
X89365838Y-108918107D01*
X89709055Y-108574891D01*
X89982500Y-108574891D01*
X89997724Y-108611645D01*
X90025855Y-108639776D01*
X90062609Y-108655000D01*
X90102391Y-108655000D01*
X90139145Y-108639776D01*
X90167276Y-108611645D01*
X90182500Y-108574891D01*
X90182500Y-108555000D01*
X90436053Y-108555000D01*
X90799160Y-108918106D01*
X90799161Y-108918106D01*
X90807834Y-108904306D01*
X90807834Y-108904305D01*
X90867378Y-108734139D01*
X90872180Y-108691518D01*
X90899246Y-108627103D01*
X90956840Y-108587548D01*
X90981518Y-108582180D01*
X91024139Y-108577378D01*
X91194305Y-108517834D01*
X91194306Y-108517834D01*
X91208106Y-108509161D01*
X91208106Y-108509160D01*
X90845000Y-108146053D01*
X90789608Y-108201446D01*
X90789607Y-108201447D01*
X90436053Y-108554999D01*
X90436053Y-108555000D01*
X90182500Y-108555000D01*
X90182500Y-108535109D01*
X90167276Y-108498355D01*
X90139145Y-108470224D01*
X90102391Y-108455000D01*
X90062609Y-108455000D01*
X90025855Y-108470224D01*
X89997724Y-108498355D01*
X89982500Y-108535109D01*
X89982500Y-108574891D01*
X89709055Y-108574891D01*
X89728946Y-108555000D01*
X89375392Y-108201446D01*
X89320000Y-108146053D01*
X89264608Y-108201446D01*
X89264607Y-108201447D01*
X88911053Y-108554999D01*
X88911053Y-108555000D01*
X88657500Y-108555000D01*
X88657500Y-108535109D01*
X88642276Y-108498355D01*
X88614145Y-108470224D01*
X88577391Y-108455000D01*
X88537609Y-108455000D01*
X88500855Y-108470224D01*
X88472724Y-108498355D01*
X88457500Y-108535109D01*
X88457500Y-108574891D01*
X88184055Y-108574891D01*
X88203946Y-108555000D01*
X87794999Y-108146053D01*
X87794998Y-108146053D01*
X87431892Y-108509160D01*
X87431892Y-108509161D01*
X79100500Y-108509161D01*
X79100500Y-107792502D01*
X86989938Y-107792502D01*
X87010121Y-107971638D01*
X87069665Y-108141804D01*
X87078338Y-108155607D01*
X87421555Y-107812391D01*
X87695000Y-107812391D01*
X87710224Y-107849145D01*
X87738355Y-107877276D01*
X87775109Y-107892500D01*
X87814891Y-107892500D01*
X87851645Y-107877276D01*
X87879776Y-107849145D01*
X87895000Y-107812391D01*
X87895000Y-107772609D01*
X87879776Y-107735855D01*
X87851645Y-107707724D01*
X87814891Y-107692500D01*
X87775109Y-107692500D01*
X87738355Y-107707724D01*
X87710224Y-107735855D01*
X87695000Y-107772609D01*
X87695000Y-107812391D01*
X87421555Y-107812391D01*
X87441446Y-107792500D01*
X87441446Y-107792499D01*
X87078338Y-107429391D01*
X87078337Y-107429391D01*
X87069667Y-107443191D01*
X87069662Y-107443201D01*
X87010123Y-107613356D01*
X87010121Y-107613361D01*
X86989938Y-107792497D01*
X86989938Y-107792502D01*
X79100500Y-107792502D01*
X79100500Y-107075837D01*
X87431890Y-107075837D01*
X87794998Y-107438946D01*
X87794999Y-107438946D01*
X88037537Y-107196409D01*
X88157500Y-107076446D01*
X88157500Y-107082661D01*
X88184759Y-107184394D01*
X88237420Y-107275606D01*
X88311894Y-107350080D01*
X88403106Y-107402741D01*
X88504839Y-107430000D01*
X88511052Y-107430000D01*
X88327697Y-107613356D01*
X88327697Y-107613357D01*
X88148553Y-107792499D01*
X88557500Y-108201446D01*
X88920722Y-107838224D01*
X88946553Y-107812391D01*
X89220000Y-107812391D01*
X89235224Y-107849145D01*
X89263355Y-107877276D01*
X89300109Y-107892500D01*
X89339891Y-107892500D01*
X89376645Y-107877276D01*
X89404776Y-107849145D01*
X89420000Y-107812391D01*
X89420000Y-107772609D01*
X89404776Y-107735855D01*
X89376645Y-107707724D01*
X89339891Y-107692500D01*
X89300109Y-107692500D01*
X89263355Y-107707724D01*
X89235224Y-107735855D01*
X89220000Y-107772609D01*
X89220000Y-107812391D01*
X88946553Y-107812391D01*
X88966445Y-107792498D01*
X88787303Y-107613358D01*
X88787302Y-107613357D01*
X88603947Y-107430000D01*
X88610161Y-107430000D01*
X88711894Y-107402741D01*
X88803106Y-107350080D01*
X88877580Y-107275606D01*
X88930241Y-107184394D01*
X88957500Y-107082661D01*
X88957500Y-107076447D01*
X89077448Y-107196395D01*
X89077463Y-107196409D01*
X89320000Y-107438946D01*
X89682500Y-107076446D01*
X89682500Y-107082661D01*
X89709759Y-107184394D01*
X89762420Y-107275606D01*
X89836894Y-107350080D01*
X89928106Y-107402741D01*
X90029839Y-107430000D01*
X90036052Y-107430000D01*
X89852697Y-107613356D01*
X89852697Y-107613357D01*
X89673553Y-107792499D01*
X90082500Y-108201446D01*
X90445722Y-107838224D01*
X90471553Y-107812391D01*
X90745000Y-107812391D01*
X90760224Y-107849145D01*
X90788355Y-107877276D01*
X90825109Y-107892500D01*
X90864891Y-107892500D01*
X90901645Y-107877276D01*
X90929776Y-107849145D01*
X90945000Y-107812391D01*
X90945000Y-107792500D01*
X91198553Y-107792500D01*
X91561660Y-108155606D01*
X91561661Y-108155606D01*
X91570334Y-108141806D01*
X91570334Y-108141805D01*
X91629877Y-107971641D01*
X91629878Y-107971638D01*
X91650062Y-107792502D01*
X91650062Y-107792497D01*
X91629878Y-107613361D01*
X91629877Y-107613357D01*
X91570333Y-107443192D01*
X91561661Y-107429392D01*
X91561660Y-107429392D01*
X91198553Y-107792500D01*
X90945000Y-107792500D01*
X90945000Y-107772609D01*
X90929776Y-107735855D01*
X90901645Y-107707724D01*
X90864891Y-107692500D01*
X90825109Y-107692500D01*
X90788355Y-107707724D01*
X90760224Y-107735855D01*
X90745000Y-107772609D01*
X90745000Y-107812391D01*
X90471553Y-107812391D01*
X90491445Y-107792498D01*
X90312303Y-107613358D01*
X90312302Y-107613357D01*
X90128947Y-107430000D01*
X90135161Y-107430000D01*
X90236894Y-107402741D01*
X90328106Y-107350080D01*
X90402580Y-107275606D01*
X90455241Y-107184394D01*
X90482500Y-107082661D01*
X90482500Y-107076447D01*
X90602448Y-107196395D01*
X90602463Y-107196409D01*
X90845000Y-107438946D01*
X90845001Y-107438946D01*
X91208107Y-107075838D01*
X91204507Y-107043885D01*
X91204506Y-107016122D01*
X91208106Y-106984160D01*
X90845000Y-106621053D01*
X90789608Y-106676446D01*
X90789607Y-106676447D01*
X90482500Y-106983552D01*
X90482500Y-106977339D01*
X90455241Y-106875606D01*
X90402580Y-106784394D01*
X90328106Y-106709920D01*
X90236894Y-106657259D01*
X90135161Y-106630000D01*
X90128946Y-106630000D01*
X90471555Y-106287391D01*
X90745000Y-106287391D01*
X90760224Y-106324145D01*
X90788355Y-106352276D01*
X90825109Y-106367500D01*
X90864891Y-106367500D01*
X90901645Y-106352276D01*
X90929776Y-106324145D01*
X90945000Y-106287391D01*
X90945000Y-106267500D01*
X91198553Y-106267500D01*
X91561660Y-106630606D01*
X91561661Y-106630606D01*
X91570334Y-106616806D01*
X91570334Y-106616805D01*
X91629877Y-106446641D01*
X91629878Y-106446638D01*
X91650062Y-106267502D01*
X91650062Y-106267497D01*
X91629878Y-106088361D01*
X91570333Y-105918192D01*
X91561661Y-105904392D01*
X91561660Y-105904392D01*
X91198553Y-106267500D01*
X90945000Y-106267500D01*
X90945000Y-106247609D01*
X90929776Y-106210855D01*
X90901645Y-106182724D01*
X90864891Y-106167500D01*
X90825109Y-106167500D01*
X90788355Y-106182724D01*
X90760224Y-106210855D01*
X90745000Y-106247609D01*
X90745000Y-106287391D01*
X90471555Y-106287391D01*
X90491446Y-106267500D01*
X90137892Y-105913946D01*
X90082500Y-105858553D01*
X90027108Y-105913946D01*
X90027107Y-105913947D01*
X89673553Y-106267499D01*
X90036054Y-106630000D01*
X90029839Y-106630000D01*
X89928106Y-106657259D01*
X89836894Y-106709920D01*
X89762420Y-106784394D01*
X89709759Y-106875606D01*
X89682500Y-106977339D01*
X89682500Y-106983554D01*
X89375392Y-106676446D01*
X89320000Y-106621053D01*
X89264608Y-106676446D01*
X89264607Y-106676447D01*
X88957500Y-106983552D01*
X88957500Y-106977339D01*
X88930241Y-106875606D01*
X88877580Y-106784394D01*
X88803106Y-106709920D01*
X88711894Y-106657259D01*
X88610161Y-106630000D01*
X88603946Y-106630000D01*
X88946555Y-106287391D01*
X89220000Y-106287391D01*
X89235224Y-106324145D01*
X89263355Y-106352276D01*
X89300109Y-106367500D01*
X89339891Y-106367500D01*
X89376645Y-106352276D01*
X89404776Y-106324145D01*
X89420000Y-106287391D01*
X89420000Y-106247609D01*
X89404776Y-106210855D01*
X89376645Y-106182724D01*
X89339891Y-106167500D01*
X89300109Y-106167500D01*
X89263355Y-106182724D01*
X89235224Y-106210855D01*
X89220000Y-106247609D01*
X89220000Y-106287391D01*
X88946555Y-106287391D01*
X88966446Y-106267500D01*
X88612892Y-105913946D01*
X88557500Y-105858553D01*
X88502108Y-105913946D01*
X88502107Y-105913947D01*
X88148553Y-106267499D01*
X88511054Y-106630000D01*
X88504839Y-106630000D01*
X88403106Y-106657259D01*
X88311894Y-106709920D01*
X88237420Y-106784394D01*
X88184759Y-106875606D01*
X88157500Y-106977339D01*
X88157500Y-106983554D01*
X87794999Y-106621053D01*
X87794998Y-106621053D01*
X87431891Y-106984160D01*
X87435492Y-107016122D01*
X87435491Y-107043885D01*
X87431890Y-107075837D01*
X79100500Y-107075837D01*
X79100500Y-106267502D01*
X86989938Y-106267502D01*
X87010121Y-106446638D01*
X87069665Y-106616804D01*
X87078338Y-106630607D01*
X87421555Y-106287391D01*
X87695000Y-106287391D01*
X87710224Y-106324145D01*
X87738355Y-106352276D01*
X87775109Y-106367500D01*
X87814891Y-106367500D01*
X87851645Y-106352276D01*
X87879776Y-106324145D01*
X87895000Y-106287391D01*
X87895000Y-106247609D01*
X87879776Y-106210855D01*
X87851645Y-106182724D01*
X87814891Y-106167500D01*
X87775109Y-106167500D01*
X87738355Y-106182724D01*
X87710224Y-106210855D01*
X87695000Y-106247609D01*
X87695000Y-106287391D01*
X87421555Y-106287391D01*
X87441446Y-106267500D01*
X87441446Y-106267499D01*
X87078338Y-105904391D01*
X87078337Y-105904391D01*
X87069667Y-105918191D01*
X87069662Y-105918201D01*
X87010122Y-106088358D01*
X87010121Y-106088361D01*
X86989938Y-106267497D01*
X86989938Y-106267502D01*
X79100500Y-106267502D01*
X79100500Y-105550838D01*
X87431891Y-105550838D01*
X87794998Y-105913946D01*
X87794999Y-105913946D01*
X88166783Y-105542164D01*
X88184055Y-105524891D01*
X88457500Y-105524891D01*
X88472724Y-105561645D01*
X88500855Y-105589776D01*
X88537609Y-105605000D01*
X88577391Y-105605000D01*
X88614145Y-105589776D01*
X88642276Y-105561645D01*
X88657500Y-105524891D01*
X88657500Y-105504999D01*
X88911053Y-105504999D01*
X89320000Y-105913946D01*
X89691783Y-105542164D01*
X89709055Y-105524891D01*
X89982500Y-105524891D01*
X89997724Y-105561645D01*
X90025855Y-105589776D01*
X90062609Y-105605000D01*
X90102391Y-105605000D01*
X90139145Y-105589776D01*
X90167276Y-105561645D01*
X90182500Y-105524891D01*
X90182500Y-105504999D01*
X90436053Y-105504999D01*
X90845000Y-105913946D01*
X90845001Y-105913946D01*
X91208107Y-105550838D01*
X91194304Y-105542165D01*
X91024138Y-105482621D01*
X90981515Y-105477819D01*
X90917102Y-105450752D01*
X90877547Y-105393157D01*
X90872180Y-105368482D01*
X90867378Y-105325861D01*
X90807833Y-105155692D01*
X90799161Y-105141892D01*
X90799160Y-105141892D01*
X90436053Y-105504998D01*
X90436053Y-105504999D01*
X90182500Y-105504999D01*
X90182500Y-105485109D01*
X90167276Y-105448355D01*
X90139145Y-105420224D01*
X90102391Y-105405000D01*
X90062609Y-105405000D01*
X90025855Y-105420224D01*
X89997724Y-105448355D01*
X89982500Y-105485109D01*
X89982500Y-105524891D01*
X89709055Y-105524891D01*
X89728946Y-105504999D01*
X89728946Y-105504998D01*
X89365837Y-105141890D01*
X89333885Y-105145491D01*
X89306122Y-105145492D01*
X89274160Y-105141891D01*
X88911053Y-105504998D01*
X88911053Y-105504999D01*
X88657500Y-105504999D01*
X88657500Y-105485109D01*
X88642276Y-105448355D01*
X88614145Y-105420224D01*
X88577391Y-105405000D01*
X88537609Y-105405000D01*
X88500855Y-105420224D01*
X88472724Y-105448355D01*
X88457500Y-105485109D01*
X88457500Y-105524891D01*
X88184055Y-105524891D01*
X88203946Y-105504999D01*
X88203946Y-105504998D01*
X87840838Y-105141891D01*
X87840837Y-105141891D01*
X87832167Y-105155691D01*
X87832162Y-105155701D01*
X87772622Y-105325858D01*
X87767819Y-105368484D01*
X87740752Y-105432898D01*
X87683156Y-105472452D01*
X87658484Y-105477819D01*
X87615858Y-105482622D01*
X87445701Y-105542162D01*
X87445694Y-105542166D01*
X87431891Y-105550837D01*
X87431891Y-105550838D01*
X79100500Y-105550838D01*
X79100500Y-104788338D01*
X88194391Y-104788338D01*
X88557500Y-105151446D01*
X88557501Y-105151446D01*
X88920607Y-104788338D01*
X89719391Y-104788338D01*
X90082500Y-105151446D01*
X90082501Y-105151446D01*
X90445607Y-104788338D01*
X90431804Y-104779665D01*
X90261638Y-104720121D01*
X90082503Y-104699938D01*
X90082497Y-104699938D01*
X89903361Y-104720121D01*
X89903358Y-104720122D01*
X89733201Y-104779662D01*
X89733191Y-104779667D01*
X89719391Y-104788337D01*
X89719391Y-104788338D01*
X88920607Y-104788338D01*
X88906804Y-104779665D01*
X88736638Y-104720121D01*
X88557503Y-104699938D01*
X88557497Y-104699938D01*
X88378361Y-104720121D01*
X88378358Y-104720122D01*
X88208201Y-104779662D01*
X88208191Y-104779667D01*
X88194391Y-104788337D01*
X88194391Y-104788338D01*
X79100500Y-104788338D01*
X79100500Y-103420945D01*
X79100500Y-103420943D01*
X79059577Y-103268216D01*
X79030487Y-103217830D01*
X78980524Y-103131290D01*
X78980521Y-103131286D01*
X78980520Y-103131284D01*
X78868716Y-103019480D01*
X78868715Y-103019479D01*
X78864385Y-103015149D01*
X78864374Y-103015139D01*
X76386818Y-100537583D01*
X76353333Y-100476260D01*
X76350499Y-100449902D01*
X76350499Y-99102129D01*
X76350498Y-99102123D01*
X76350497Y-99102116D01*
X76344091Y-99042517D01*
X76302521Y-98931063D01*
X76293797Y-98907671D01*
X76293793Y-98907664D01*
X76207547Y-98792455D01*
X76207544Y-98792452D01*
X76092335Y-98706206D01*
X76092328Y-98706202D01*
X75957482Y-98655908D01*
X75957483Y-98655908D01*
X75897883Y-98649501D01*
X75897881Y-98649500D01*
X75897873Y-98649500D01*
X75897864Y-98649500D01*
X74102129Y-98649500D01*
X74102123Y-98649501D01*
X74042516Y-98655908D01*
X73907671Y-98706202D01*
X73907664Y-98706206D01*
X73792455Y-98792452D01*
X73792452Y-98792455D01*
X73723766Y-98884208D01*
X73667832Y-98926079D01*
X73598141Y-98931063D01*
X73536818Y-98897577D01*
X73503334Y-98836254D01*
X73500500Y-98809897D01*
X73500500Y-98264000D01*
X73520185Y-98196961D01*
X73572989Y-98151206D01*
X73624500Y-98140000D01*
X106375500Y-98140000D01*
X106442539Y-98159685D01*
G37*
G04 #@! TD.AperFunction*
M02*
