G04 #@! TF.GenerationSoftware,KiCad,Pcbnew,8.0.0*
G04 #@! TF.CreationDate,2024-02-25T01:58:56+01:00*
G04 #@! TF.ProjectId,ESP32j1mmb,45535033-326a-4316-9d6d-622e6b696361,rev?*
G04 #@! TF.SameCoordinates,Original*
G04 #@! TF.FileFunction,Legend,Top*
G04 #@! TF.FilePolarity,Positive*
%FSLAX46Y46*%
G04 Gerber Fmt 4.6, Leading zero omitted, Abs format (unit mm)*
G04 Created by KiCad (PCBNEW 8.0.0) date 2024-02-25 01:58:56*
%MOMM*%
%LPD*%
G01*
G04 APERTURE LIST*
G04 Aperture macros list*
%AMRoundRect*
0 Rectangle with rounded corners*
0 $1 Rounding radius*
0 $2 $3 $4 $5 $6 $7 $8 $9 X,Y pos of 4 corners*
0 Add a 4 corners polygon primitive as box body*
4,1,4,$2,$3,$4,$5,$6,$7,$8,$9,$2,$3,0*
0 Add four circle primitives for the rounded corners*
1,1,$1+$1,$2,$3*
1,1,$1+$1,$4,$5*
1,1,$1+$1,$6,$7*
1,1,$1+$1,$8,$9*
0 Add four rect primitives between the rounded corners*
20,1,$1+$1,$2,$3,$4,$5,0*
20,1,$1+$1,$4,$5,$6,$7,0*
20,1,$1+$1,$6,$7,$8,$9,0*
20,1,$1+$1,$8,$9,$2,$3,0*%
G04 Aperture macros list end*
%ADD10C,0.100000*%
%ADD11C,0.200000*%
%ADD12C,0.150000*%
%ADD13C,0.120000*%
%ADD14RoundRect,0.237500X0.287500X0.237500X-0.287500X0.237500X-0.287500X-0.237500X0.287500X-0.237500X0*%
%ADD15RoundRect,0.237500X-0.250000X-0.237500X0.250000X-0.237500X0.250000X0.237500X-0.250000X0.237500X0*%
%ADD16R,1.700000X1.700000*%
%ADD17O,1.700000X1.700000*%
%ADD18RoundRect,0.375000X-0.625000X-0.375000X0.625000X-0.375000X0.625000X0.375000X-0.625000X0.375000X0*%
%ADD19RoundRect,0.500000X-0.500000X-1.400000X0.500000X-1.400000X0.500000X1.400000X-0.500000X1.400000X0*%
%ADD20RoundRect,0.237500X0.237500X-0.300000X0.237500X0.300000X-0.237500X0.300000X-0.237500X-0.300000X0*%
%ADD21R,1.500000X0.900000*%
%ADD22R,0.900000X1.500000*%
%ADD23C,0.600000*%
%ADD24C,1.200000*%
%ADD25R,4.200000X4.200000*%
G04 APERTURE END LIST*
D10*
X78988044Y-129034710D02*
X79749949Y-129034710D01*
X79368996Y-129415663D02*
X79368996Y-128653758D01*
X83752671Y-137055381D02*
X83752671Y-133000000D01*
D11*
X83500000Y-128000000D02*
X83500000Y-130000000D01*
D10*
X101256265Y-100027881D02*
X101303884Y-99980262D01*
X101303884Y-99980262D02*
X101399122Y-99932643D01*
X101399122Y-99932643D02*
X101637217Y-99932643D01*
X101637217Y-99932643D02*
X101732455Y-99980262D01*
X101732455Y-99980262D02*
X101780074Y-100027881D01*
X101780074Y-100027881D02*
X101827693Y-100123119D01*
X101827693Y-100123119D02*
X101827693Y-100218357D01*
X101827693Y-100218357D02*
X101780074Y-100361214D01*
X101780074Y-100361214D02*
X101208646Y-100932643D01*
X101208646Y-100932643D02*
X101827693Y-100932643D01*
X102161027Y-99932643D02*
X102780074Y-99932643D01*
X102780074Y-99932643D02*
X102446741Y-100313595D01*
X102446741Y-100313595D02*
X102589598Y-100313595D01*
X102589598Y-100313595D02*
X102684836Y-100361214D01*
X102684836Y-100361214D02*
X102732455Y-100408833D01*
X102732455Y-100408833D02*
X102780074Y-100504071D01*
X102780074Y-100504071D02*
X102780074Y-100742166D01*
X102780074Y-100742166D02*
X102732455Y-100837404D01*
X102732455Y-100837404D02*
X102684836Y-100885024D01*
X102684836Y-100885024D02*
X102589598Y-100932643D01*
X102589598Y-100932643D02*
X102303884Y-100932643D01*
X102303884Y-100932643D02*
X102208646Y-100885024D01*
X102208646Y-100885024D02*
X102161027Y-100837404D01*
X101256265Y-103247769D02*
X101303884Y-103200150D01*
X101303884Y-103200150D02*
X101399122Y-103152531D01*
X101399122Y-103152531D02*
X101637217Y-103152531D01*
X101637217Y-103152531D02*
X101732455Y-103200150D01*
X101732455Y-103200150D02*
X101780074Y-103247769D01*
X101780074Y-103247769D02*
X101827693Y-103343007D01*
X101827693Y-103343007D02*
X101827693Y-103438245D01*
X101827693Y-103438245D02*
X101780074Y-103581102D01*
X101780074Y-103581102D02*
X101208646Y-104152531D01*
X101208646Y-104152531D02*
X101827693Y-104152531D01*
X102208646Y-103247769D02*
X102256265Y-103200150D01*
X102256265Y-103200150D02*
X102351503Y-103152531D01*
X102351503Y-103152531D02*
X102589598Y-103152531D01*
X102589598Y-103152531D02*
X102684836Y-103200150D01*
X102684836Y-103200150D02*
X102732455Y-103247769D01*
X102732455Y-103247769D02*
X102780074Y-103343007D01*
X102780074Y-103343007D02*
X102780074Y-103438245D01*
X102780074Y-103438245D02*
X102732455Y-103581102D01*
X102732455Y-103581102D02*
X102161027Y-104152531D01*
X102161027Y-104152531D02*
X102780074Y-104152531D01*
X101827693Y-105762475D02*
X101256265Y-105762475D01*
X101541979Y-105762475D02*
X101541979Y-104762475D01*
X101541979Y-104762475D02*
X101446741Y-104905332D01*
X101446741Y-104905332D02*
X101351503Y-105000570D01*
X101351503Y-105000570D02*
X101256265Y-105048189D01*
X101208646Y-106372419D02*
X101827693Y-106372419D01*
X101827693Y-106372419D02*
X101494360Y-106753371D01*
X101494360Y-106753371D02*
X101637217Y-106753371D01*
X101637217Y-106753371D02*
X101732455Y-106800990D01*
X101732455Y-106800990D02*
X101780074Y-106848609D01*
X101780074Y-106848609D02*
X101827693Y-106943847D01*
X101827693Y-106943847D02*
X101827693Y-107181942D01*
X101827693Y-107181942D02*
X101780074Y-107277180D01*
X101780074Y-107277180D02*
X101732455Y-107324800D01*
X101732455Y-107324800D02*
X101637217Y-107372419D01*
X101637217Y-107372419D02*
X101351503Y-107372419D01*
X101351503Y-107372419D02*
X101256265Y-107324800D01*
X101256265Y-107324800D02*
X101208646Y-107277180D01*
X101256265Y-110747769D02*
X101303884Y-110700150D01*
X101303884Y-110700150D02*
X101399122Y-110652531D01*
X101399122Y-110652531D02*
X101637217Y-110652531D01*
X101637217Y-110652531D02*
X101732455Y-110700150D01*
X101732455Y-110700150D02*
X101780074Y-110747769D01*
X101780074Y-110747769D02*
X101827693Y-110843007D01*
X101827693Y-110843007D02*
X101827693Y-110938245D01*
X101827693Y-110938245D02*
X101780074Y-111081102D01*
X101780074Y-111081102D02*
X101208646Y-111652531D01*
X101208646Y-111652531D02*
X101827693Y-111652531D01*
X102780074Y-111652531D02*
X102208646Y-111652531D01*
X102494360Y-111652531D02*
X102494360Y-110652531D01*
X102494360Y-110652531D02*
X102399122Y-110795388D01*
X102399122Y-110795388D02*
X102303884Y-110890626D01*
X102303884Y-110890626D02*
X102208646Y-110938245D01*
X101827693Y-113262475D02*
X101256265Y-113262475D01*
X101541979Y-113262475D02*
X101541979Y-112262475D01*
X101541979Y-112262475D02*
X101446741Y-112405332D01*
X101446741Y-112405332D02*
X101351503Y-112500570D01*
X101351503Y-112500570D02*
X101256265Y-112548189D01*
X102303884Y-113262475D02*
X102494360Y-113262475D01*
X102494360Y-113262475D02*
X102589598Y-113214856D01*
X102589598Y-113214856D02*
X102637217Y-113167236D01*
X102637217Y-113167236D02*
X102732455Y-113024379D01*
X102732455Y-113024379D02*
X102780074Y-112833903D01*
X102780074Y-112833903D02*
X102780074Y-112452951D01*
X102780074Y-112452951D02*
X102732455Y-112357713D01*
X102732455Y-112357713D02*
X102684836Y-112310094D01*
X102684836Y-112310094D02*
X102589598Y-112262475D01*
X102589598Y-112262475D02*
X102399122Y-112262475D01*
X102399122Y-112262475D02*
X102303884Y-112310094D01*
X102303884Y-112310094D02*
X102256265Y-112357713D01*
X102256265Y-112357713D02*
X102208646Y-112452951D01*
X102208646Y-112452951D02*
X102208646Y-112691046D01*
X102208646Y-112691046D02*
X102256265Y-112786284D01*
X102256265Y-112786284D02*
X102303884Y-112833903D01*
X102303884Y-112833903D02*
X102399122Y-112881522D01*
X102399122Y-112881522D02*
X102589598Y-112881522D01*
X102589598Y-112881522D02*
X102684836Y-112833903D01*
X102684836Y-112833903D02*
X102732455Y-112786284D01*
X102732455Y-112786284D02*
X102780074Y-112691046D01*
X101827693Y-114872419D02*
X101256265Y-114872419D01*
X101541979Y-114872419D02*
X101541979Y-113872419D01*
X101541979Y-113872419D02*
X101446741Y-114015276D01*
X101446741Y-114015276D02*
X101351503Y-114110514D01*
X101351503Y-114110514D02*
X101256265Y-114158133D01*
X102399122Y-114300990D02*
X102303884Y-114253371D01*
X102303884Y-114253371D02*
X102256265Y-114205752D01*
X102256265Y-114205752D02*
X102208646Y-114110514D01*
X102208646Y-114110514D02*
X102208646Y-114062895D01*
X102208646Y-114062895D02*
X102256265Y-113967657D01*
X102256265Y-113967657D02*
X102303884Y-113920038D01*
X102303884Y-113920038D02*
X102399122Y-113872419D01*
X102399122Y-113872419D02*
X102589598Y-113872419D01*
X102589598Y-113872419D02*
X102684836Y-113920038D01*
X102684836Y-113920038D02*
X102732455Y-113967657D01*
X102732455Y-113967657D02*
X102780074Y-114062895D01*
X102780074Y-114062895D02*
X102780074Y-114110514D01*
X102780074Y-114110514D02*
X102732455Y-114205752D01*
X102732455Y-114205752D02*
X102684836Y-114253371D01*
X102684836Y-114253371D02*
X102589598Y-114300990D01*
X102589598Y-114300990D02*
X102399122Y-114300990D01*
X102399122Y-114300990D02*
X102303884Y-114348609D01*
X102303884Y-114348609D02*
X102256265Y-114396228D01*
X102256265Y-114396228D02*
X102208646Y-114491466D01*
X102208646Y-114491466D02*
X102208646Y-114681942D01*
X102208646Y-114681942D02*
X102256265Y-114777180D01*
X102256265Y-114777180D02*
X102303884Y-114824800D01*
X102303884Y-114824800D02*
X102399122Y-114872419D01*
X102399122Y-114872419D02*
X102589598Y-114872419D01*
X102589598Y-114872419D02*
X102684836Y-114824800D01*
X102684836Y-114824800D02*
X102732455Y-114777180D01*
X102732455Y-114777180D02*
X102780074Y-114681942D01*
X102780074Y-114681942D02*
X102780074Y-114491466D01*
X102780074Y-114491466D02*
X102732455Y-114396228D01*
X102732455Y-114396228D02*
X102684836Y-114348609D01*
X102684836Y-114348609D02*
X102589598Y-114300990D01*
X101780074Y-118152531D02*
X101303884Y-118152531D01*
X101303884Y-118152531D02*
X101256265Y-118628721D01*
X101256265Y-118628721D02*
X101303884Y-118581102D01*
X101303884Y-118581102D02*
X101399122Y-118533483D01*
X101399122Y-118533483D02*
X101637217Y-118533483D01*
X101637217Y-118533483D02*
X101732455Y-118581102D01*
X101732455Y-118581102D02*
X101780074Y-118628721D01*
X101780074Y-118628721D02*
X101827693Y-118723959D01*
X101827693Y-118723959D02*
X101827693Y-118962054D01*
X101827693Y-118962054D02*
X101780074Y-119057292D01*
X101780074Y-119057292D02*
X101732455Y-119104912D01*
X101732455Y-119104912D02*
X101637217Y-119152531D01*
X101637217Y-119152531D02*
X101399122Y-119152531D01*
X101399122Y-119152531D02*
X101303884Y-119104912D01*
X101303884Y-119104912D02*
X101256265Y-119057292D01*
X101827693Y-120762475D02*
X101256265Y-120762475D01*
X101541979Y-120762475D02*
X101541979Y-119762475D01*
X101541979Y-119762475D02*
X101446741Y-119905332D01*
X101446741Y-119905332D02*
X101351503Y-120000570D01*
X101351503Y-120000570D02*
X101256265Y-120048189D01*
X102161027Y-119762475D02*
X102827693Y-119762475D01*
X102827693Y-119762475D02*
X102399122Y-120762475D01*
X101827693Y-122372419D02*
X101256265Y-122372419D01*
X101541979Y-122372419D02*
X101541979Y-121372419D01*
X101541979Y-121372419D02*
X101446741Y-121515276D01*
X101446741Y-121515276D02*
X101351503Y-121610514D01*
X101351503Y-121610514D02*
X101256265Y-121658133D01*
X102684836Y-121372419D02*
X102494360Y-121372419D01*
X102494360Y-121372419D02*
X102399122Y-121420038D01*
X102399122Y-121420038D02*
X102351503Y-121467657D01*
X102351503Y-121467657D02*
X102256265Y-121610514D01*
X102256265Y-121610514D02*
X102208646Y-121800990D01*
X102208646Y-121800990D02*
X102208646Y-122181942D01*
X102208646Y-122181942D02*
X102256265Y-122277180D01*
X102256265Y-122277180D02*
X102303884Y-122324800D01*
X102303884Y-122324800D02*
X102399122Y-122372419D01*
X102399122Y-122372419D02*
X102589598Y-122372419D01*
X102589598Y-122372419D02*
X102684836Y-122324800D01*
X102684836Y-122324800D02*
X102732455Y-122277180D01*
X102732455Y-122277180D02*
X102780074Y-122181942D01*
X102780074Y-122181942D02*
X102780074Y-121943847D01*
X102780074Y-121943847D02*
X102732455Y-121848609D01*
X102732455Y-121848609D02*
X102684836Y-121800990D01*
X102684836Y-121800990D02*
X102589598Y-121753371D01*
X102589598Y-121753371D02*
X102399122Y-121753371D01*
X102399122Y-121753371D02*
X102303884Y-121800990D01*
X102303884Y-121800990D02*
X102256265Y-121848609D01*
X102256265Y-121848609D02*
X102208646Y-121943847D01*
X102232455Y-126485864D02*
X102232455Y-127152531D01*
X101994360Y-126104912D02*
X101756265Y-126819197D01*
X101756265Y-126819197D02*
X102375312Y-126819197D01*
X101756265Y-127857713D02*
X101803884Y-127810094D01*
X101803884Y-127810094D02*
X101899122Y-127762475D01*
X101899122Y-127762475D02*
X102137217Y-127762475D01*
X102137217Y-127762475D02*
X102232455Y-127810094D01*
X102232455Y-127810094D02*
X102280074Y-127857713D01*
X102280074Y-127857713D02*
X102327693Y-127952951D01*
X102327693Y-127952951D02*
X102327693Y-128048189D01*
X102327693Y-128048189D02*
X102280074Y-128191046D01*
X102280074Y-128191046D02*
X101708646Y-128762475D01*
X101708646Y-128762475D02*
X102327693Y-128762475D01*
X102327693Y-130372419D02*
X101756265Y-130372419D01*
X102041979Y-130372419D02*
X102041979Y-129372419D01*
X102041979Y-129372419D02*
X101946741Y-129515276D01*
X101946741Y-129515276D02*
X101851503Y-129610514D01*
X101851503Y-129610514D02*
X101756265Y-129658133D01*
X103232455Y-129372419D02*
X102756265Y-129372419D01*
X102756265Y-129372419D02*
X102708646Y-129848609D01*
X102708646Y-129848609D02*
X102756265Y-129800990D01*
X102756265Y-129800990D02*
X102851503Y-129753371D01*
X102851503Y-129753371D02*
X103089598Y-129753371D01*
X103089598Y-129753371D02*
X103184836Y-129800990D01*
X103184836Y-129800990D02*
X103232455Y-129848609D01*
X103232455Y-129848609D02*
X103280074Y-129943847D01*
X103280074Y-129943847D02*
X103280074Y-130181942D01*
X103280074Y-130181942D02*
X103232455Y-130277180D01*
X103232455Y-130277180D02*
X103184836Y-130324800D01*
X103184836Y-130324800D02*
X103089598Y-130372419D01*
X103089598Y-130372419D02*
X102851503Y-130372419D01*
X102851503Y-130372419D02*
X102756265Y-130324800D01*
X102756265Y-130324800D02*
X102708646Y-130277180D01*
X101248910Y-132603721D02*
X101153672Y-132556102D01*
X101153672Y-132556102D02*
X101010815Y-132556102D01*
X101010815Y-132556102D02*
X100867958Y-132603721D01*
X100867958Y-132603721D02*
X100772720Y-132698959D01*
X100772720Y-132698959D02*
X100725101Y-132794197D01*
X100725101Y-132794197D02*
X100677482Y-132984673D01*
X100677482Y-132984673D02*
X100677482Y-133127530D01*
X100677482Y-133127530D02*
X100725101Y-133318006D01*
X100725101Y-133318006D02*
X100772720Y-133413244D01*
X100772720Y-133413244D02*
X100867958Y-133508483D01*
X100867958Y-133508483D02*
X101010815Y-133556102D01*
X101010815Y-133556102D02*
X101106053Y-133556102D01*
X101106053Y-133556102D02*
X101248910Y-133508483D01*
X101248910Y-133508483D02*
X101296529Y-133460863D01*
X101296529Y-133460863D02*
X101296529Y-133127530D01*
X101296529Y-133127530D02*
X101106053Y-133127530D01*
X101725101Y-133556102D02*
X101725101Y-132556102D01*
X101725101Y-132556102D02*
X102296529Y-133556102D01*
X102296529Y-133556102D02*
X102296529Y-132556102D01*
X102772720Y-133556102D02*
X102772720Y-132556102D01*
X102772720Y-132556102D02*
X103010815Y-132556102D01*
X103010815Y-132556102D02*
X103153672Y-132603721D01*
X103153672Y-132603721D02*
X103248910Y-132698959D01*
X103248910Y-132698959D02*
X103296529Y-132794197D01*
X103296529Y-132794197D02*
X103344148Y-132984673D01*
X103344148Y-132984673D02*
X103344148Y-133127530D01*
X103344148Y-133127530D02*
X103296529Y-133318006D01*
X103296529Y-133318006D02*
X103248910Y-133413244D01*
X103248910Y-133413244D02*
X103153672Y-133508483D01*
X103153672Y-133508483D02*
X103010815Y-133556102D01*
X103010815Y-133556102D02*
X102772720Y-133556102D01*
X100535111Y-135114403D02*
X101154158Y-135114403D01*
X101154158Y-135114403D02*
X100820825Y-135495355D01*
X100820825Y-135495355D02*
X100963682Y-135495355D01*
X100963682Y-135495355D02*
X101058920Y-135542974D01*
X101058920Y-135542974D02*
X101106539Y-135590593D01*
X101106539Y-135590593D02*
X101154158Y-135685831D01*
X101154158Y-135685831D02*
X101154158Y-135923926D01*
X101154158Y-135923926D02*
X101106539Y-136019164D01*
X101106539Y-136019164D02*
X101058920Y-136066784D01*
X101058920Y-136066784D02*
X100963682Y-136114403D01*
X100963682Y-136114403D02*
X100677968Y-136114403D01*
X100677968Y-136114403D02*
X100582730Y-136066784D01*
X100582730Y-136066784D02*
X100535111Y-136019164D01*
X101582730Y-136019164D02*
X101630349Y-136066784D01*
X101630349Y-136066784D02*
X101582730Y-136114403D01*
X101582730Y-136114403D02*
X101535111Y-136066784D01*
X101535111Y-136066784D02*
X101582730Y-136019164D01*
X101582730Y-136019164D02*
X101582730Y-136114403D01*
X101963682Y-135114403D02*
X102582729Y-135114403D01*
X102582729Y-135114403D02*
X102249396Y-135495355D01*
X102249396Y-135495355D02*
X102392253Y-135495355D01*
X102392253Y-135495355D02*
X102487491Y-135542974D01*
X102487491Y-135542974D02*
X102535110Y-135590593D01*
X102535110Y-135590593D02*
X102582729Y-135685831D01*
X102582729Y-135685831D02*
X102582729Y-135923926D01*
X102582729Y-135923926D02*
X102535110Y-136019164D01*
X102535110Y-136019164D02*
X102487491Y-136066784D01*
X102487491Y-136066784D02*
X102392253Y-136114403D01*
X102392253Y-136114403D02*
X102106539Y-136114403D01*
X102106539Y-136114403D02*
X102011301Y-136066784D01*
X102011301Y-136066784D02*
X101963682Y-136019164D01*
X102916063Y-135447736D02*
X103154158Y-136114403D01*
X103154158Y-136114403D02*
X103392253Y-135447736D01*
X76872419Y-136838972D02*
X77872419Y-136505639D01*
X77872419Y-136505639D02*
X76872419Y-136172306D01*
X77872419Y-135838972D02*
X77205752Y-135838972D01*
X76872419Y-135838972D02*
X76920038Y-135886591D01*
X76920038Y-135886591D02*
X76967657Y-135838972D01*
X76967657Y-135838972D02*
X76920038Y-135791353D01*
X76920038Y-135791353D02*
X76872419Y-135838972D01*
X76872419Y-135838972D02*
X76967657Y-135838972D01*
X77205752Y-135362782D02*
X77872419Y-135362782D01*
X77300990Y-135362782D02*
X77253371Y-135315163D01*
X77253371Y-135315163D02*
X77205752Y-135219925D01*
X77205752Y-135219925D02*
X77205752Y-135077068D01*
X77205752Y-135077068D02*
X77253371Y-134981830D01*
X77253371Y-134981830D02*
X77348609Y-134934211D01*
X77348609Y-134934211D02*
X77872419Y-134934211D01*
X76910038Y-133818573D02*
X76862419Y-133913811D01*
X76862419Y-133913811D02*
X76862419Y-134056668D01*
X76862419Y-134056668D02*
X76910038Y-134199525D01*
X76910038Y-134199525D02*
X77005276Y-134294763D01*
X77005276Y-134294763D02*
X77100514Y-134342382D01*
X77100514Y-134342382D02*
X77290990Y-134390001D01*
X77290990Y-134390001D02*
X77433847Y-134390001D01*
X77433847Y-134390001D02*
X77624323Y-134342382D01*
X77624323Y-134342382D02*
X77719561Y-134294763D01*
X77719561Y-134294763D02*
X77814800Y-134199525D01*
X77814800Y-134199525D02*
X77862419Y-134056668D01*
X77862419Y-134056668D02*
X77862419Y-133961430D01*
X77862419Y-133961430D02*
X77814800Y-133818573D01*
X77814800Y-133818573D02*
X77767180Y-133770954D01*
X77767180Y-133770954D02*
X77433847Y-133770954D01*
X77433847Y-133770954D02*
X77433847Y-133961430D01*
X77862419Y-133342382D02*
X76862419Y-133342382D01*
X76862419Y-133342382D02*
X77862419Y-132770954D01*
X77862419Y-132770954D02*
X76862419Y-132770954D01*
X77862419Y-132294763D02*
X76862419Y-132294763D01*
X76862419Y-132294763D02*
X76862419Y-132056668D01*
X76862419Y-132056668D02*
X76910038Y-131913811D01*
X76910038Y-131913811D02*
X77005276Y-131818573D01*
X77005276Y-131818573D02*
X77100514Y-131770954D01*
X77100514Y-131770954D02*
X77290990Y-131723335D01*
X77290990Y-131723335D02*
X77433847Y-131723335D01*
X77433847Y-131723335D02*
X77624323Y-131770954D01*
X77624323Y-131770954D02*
X77719561Y-131818573D01*
X77719561Y-131818573D02*
X77814800Y-131913811D01*
X77814800Y-131913811D02*
X77862419Y-132056668D01*
X77862419Y-132056668D02*
X77862419Y-132294763D01*
X77327693Y-126652531D02*
X76756265Y-126652531D01*
X77041979Y-126652531D02*
X77041979Y-125652531D01*
X77041979Y-125652531D02*
X76946741Y-125795388D01*
X76946741Y-125795388D02*
X76851503Y-125890626D01*
X76851503Y-125890626D02*
X76756265Y-125938245D01*
X78184836Y-125985864D02*
X78184836Y-126652531D01*
X77946741Y-125604912D02*
X77708646Y-126319197D01*
X77708646Y-126319197D02*
X78327693Y-126319197D01*
X77327693Y-128262475D02*
X76756265Y-128262475D01*
X77041979Y-128262475D02*
X77041979Y-127262475D01*
X77041979Y-127262475D02*
X76946741Y-127405332D01*
X76946741Y-127405332D02*
X76851503Y-127500570D01*
X76851503Y-127500570D02*
X76756265Y-127548189D01*
X77708646Y-127357713D02*
X77756265Y-127310094D01*
X77756265Y-127310094D02*
X77851503Y-127262475D01*
X77851503Y-127262475D02*
X78089598Y-127262475D01*
X78089598Y-127262475D02*
X78184836Y-127310094D01*
X78184836Y-127310094D02*
X78232455Y-127357713D01*
X78232455Y-127357713D02*
X78280074Y-127452951D01*
X78280074Y-127452951D02*
X78280074Y-127548189D01*
X78280074Y-127548189D02*
X78232455Y-127691046D01*
X78232455Y-127691046D02*
X77661027Y-128262475D01*
X77661027Y-128262475D02*
X78280074Y-128262475D01*
X77327693Y-129872419D02*
X76756265Y-129872419D01*
X77041979Y-129872419D02*
X77041979Y-128872419D01*
X77041979Y-128872419D02*
X76946741Y-129015276D01*
X76946741Y-129015276D02*
X76851503Y-129110514D01*
X76851503Y-129110514D02*
X76756265Y-129158133D01*
X77661027Y-128872419D02*
X78280074Y-128872419D01*
X78280074Y-128872419D02*
X77946741Y-129253371D01*
X77946741Y-129253371D02*
X78089598Y-129253371D01*
X78089598Y-129253371D02*
X78184836Y-129300990D01*
X78184836Y-129300990D02*
X78232455Y-129348609D01*
X78232455Y-129348609D02*
X78280074Y-129443847D01*
X78280074Y-129443847D02*
X78280074Y-129681942D01*
X78280074Y-129681942D02*
X78232455Y-129777180D01*
X78232455Y-129777180D02*
X78184836Y-129824800D01*
X78184836Y-129824800D02*
X78089598Y-129872419D01*
X78089598Y-129872419D02*
X77803884Y-129872419D01*
X77803884Y-129872419D02*
X77708646Y-129824800D01*
X77708646Y-129824800D02*
X77661027Y-129777180D01*
X76756265Y-118247769D02*
X76803884Y-118200150D01*
X76803884Y-118200150D02*
X76899122Y-118152531D01*
X76899122Y-118152531D02*
X77137217Y-118152531D01*
X77137217Y-118152531D02*
X77232455Y-118200150D01*
X77232455Y-118200150D02*
X77280074Y-118247769D01*
X77280074Y-118247769D02*
X77327693Y-118343007D01*
X77327693Y-118343007D02*
X77327693Y-118438245D01*
X77327693Y-118438245D02*
X77280074Y-118581102D01*
X77280074Y-118581102D02*
X76708646Y-119152531D01*
X76708646Y-119152531D02*
X77327693Y-119152531D01*
X78232455Y-118152531D02*
X77756265Y-118152531D01*
X77756265Y-118152531D02*
X77708646Y-118628721D01*
X77708646Y-118628721D02*
X77756265Y-118581102D01*
X77756265Y-118581102D02*
X77851503Y-118533483D01*
X77851503Y-118533483D02*
X78089598Y-118533483D01*
X78089598Y-118533483D02*
X78184836Y-118581102D01*
X78184836Y-118581102D02*
X78232455Y-118628721D01*
X78232455Y-118628721D02*
X78280074Y-118723959D01*
X78280074Y-118723959D02*
X78280074Y-118962054D01*
X78280074Y-118962054D02*
X78232455Y-119057292D01*
X78232455Y-119057292D02*
X78184836Y-119104912D01*
X78184836Y-119104912D02*
X78089598Y-119152531D01*
X78089598Y-119152531D02*
X77851503Y-119152531D01*
X77851503Y-119152531D02*
X77756265Y-119104912D01*
X77756265Y-119104912D02*
X77708646Y-119057292D01*
X76756265Y-119857713D02*
X76803884Y-119810094D01*
X76803884Y-119810094D02*
X76899122Y-119762475D01*
X76899122Y-119762475D02*
X77137217Y-119762475D01*
X77137217Y-119762475D02*
X77232455Y-119810094D01*
X77232455Y-119810094D02*
X77280074Y-119857713D01*
X77280074Y-119857713D02*
X77327693Y-119952951D01*
X77327693Y-119952951D02*
X77327693Y-120048189D01*
X77327693Y-120048189D02*
X77280074Y-120191046D01*
X77280074Y-120191046D02*
X76708646Y-120762475D01*
X76708646Y-120762475D02*
X77327693Y-120762475D01*
X78184836Y-119762475D02*
X77994360Y-119762475D01*
X77994360Y-119762475D02*
X77899122Y-119810094D01*
X77899122Y-119810094D02*
X77851503Y-119857713D01*
X77851503Y-119857713D02*
X77756265Y-120000570D01*
X77756265Y-120000570D02*
X77708646Y-120191046D01*
X77708646Y-120191046D02*
X77708646Y-120571998D01*
X77708646Y-120571998D02*
X77756265Y-120667236D01*
X77756265Y-120667236D02*
X77803884Y-120714856D01*
X77803884Y-120714856D02*
X77899122Y-120762475D01*
X77899122Y-120762475D02*
X78089598Y-120762475D01*
X78089598Y-120762475D02*
X78184836Y-120714856D01*
X78184836Y-120714856D02*
X78232455Y-120667236D01*
X78232455Y-120667236D02*
X78280074Y-120571998D01*
X78280074Y-120571998D02*
X78280074Y-120333903D01*
X78280074Y-120333903D02*
X78232455Y-120238665D01*
X78232455Y-120238665D02*
X78184836Y-120191046D01*
X78184836Y-120191046D02*
X78089598Y-120143427D01*
X78089598Y-120143427D02*
X77899122Y-120143427D01*
X77899122Y-120143427D02*
X77803884Y-120191046D01*
X77803884Y-120191046D02*
X77756265Y-120238665D01*
X77756265Y-120238665D02*
X77708646Y-120333903D01*
X76756265Y-121467657D02*
X76803884Y-121420038D01*
X76803884Y-121420038D02*
X76899122Y-121372419D01*
X76899122Y-121372419D02*
X77137217Y-121372419D01*
X77137217Y-121372419D02*
X77232455Y-121420038D01*
X77232455Y-121420038D02*
X77280074Y-121467657D01*
X77280074Y-121467657D02*
X77327693Y-121562895D01*
X77327693Y-121562895D02*
X77327693Y-121658133D01*
X77327693Y-121658133D02*
X77280074Y-121800990D01*
X77280074Y-121800990D02*
X76708646Y-122372419D01*
X76708646Y-122372419D02*
X77327693Y-122372419D01*
X77661027Y-121372419D02*
X78327693Y-121372419D01*
X78327693Y-121372419D02*
X77899122Y-122372419D01*
X76708646Y-110652531D02*
X77327693Y-110652531D01*
X77327693Y-110652531D02*
X76994360Y-111033483D01*
X76994360Y-111033483D02*
X77137217Y-111033483D01*
X77137217Y-111033483D02*
X77232455Y-111081102D01*
X77232455Y-111081102D02*
X77280074Y-111128721D01*
X77280074Y-111128721D02*
X77327693Y-111223959D01*
X77327693Y-111223959D02*
X77327693Y-111462054D01*
X77327693Y-111462054D02*
X77280074Y-111557292D01*
X77280074Y-111557292D02*
X77232455Y-111604912D01*
X77232455Y-111604912D02*
X77137217Y-111652531D01*
X77137217Y-111652531D02*
X76851503Y-111652531D01*
X76851503Y-111652531D02*
X76756265Y-111604912D01*
X76756265Y-111604912D02*
X76708646Y-111557292D01*
X78232455Y-110652531D02*
X77756265Y-110652531D01*
X77756265Y-110652531D02*
X77708646Y-111128721D01*
X77708646Y-111128721D02*
X77756265Y-111081102D01*
X77756265Y-111081102D02*
X77851503Y-111033483D01*
X77851503Y-111033483D02*
X78089598Y-111033483D01*
X78089598Y-111033483D02*
X78184836Y-111081102D01*
X78184836Y-111081102D02*
X78232455Y-111128721D01*
X78232455Y-111128721D02*
X78280074Y-111223959D01*
X78280074Y-111223959D02*
X78280074Y-111462054D01*
X78280074Y-111462054D02*
X78232455Y-111557292D01*
X78232455Y-111557292D02*
X78184836Y-111604912D01*
X78184836Y-111604912D02*
X78089598Y-111652531D01*
X78089598Y-111652531D02*
X77851503Y-111652531D01*
X77851503Y-111652531D02*
X77756265Y-111604912D01*
X77756265Y-111604912D02*
X77708646Y-111557292D01*
X76708646Y-112262475D02*
X77327693Y-112262475D01*
X77327693Y-112262475D02*
X76994360Y-112643427D01*
X76994360Y-112643427D02*
X77137217Y-112643427D01*
X77137217Y-112643427D02*
X77232455Y-112691046D01*
X77232455Y-112691046D02*
X77280074Y-112738665D01*
X77280074Y-112738665D02*
X77327693Y-112833903D01*
X77327693Y-112833903D02*
X77327693Y-113071998D01*
X77327693Y-113071998D02*
X77280074Y-113167236D01*
X77280074Y-113167236D02*
X77232455Y-113214856D01*
X77232455Y-113214856D02*
X77137217Y-113262475D01*
X77137217Y-113262475D02*
X76851503Y-113262475D01*
X76851503Y-113262475D02*
X76756265Y-113214856D01*
X76756265Y-113214856D02*
X76708646Y-113167236D01*
X77708646Y-112357713D02*
X77756265Y-112310094D01*
X77756265Y-112310094D02*
X77851503Y-112262475D01*
X77851503Y-112262475D02*
X78089598Y-112262475D01*
X78089598Y-112262475D02*
X78184836Y-112310094D01*
X78184836Y-112310094D02*
X78232455Y-112357713D01*
X78232455Y-112357713D02*
X78280074Y-112452951D01*
X78280074Y-112452951D02*
X78280074Y-112548189D01*
X78280074Y-112548189D02*
X78232455Y-112691046D01*
X78232455Y-112691046D02*
X77661027Y-113262475D01*
X77661027Y-113262475D02*
X78280074Y-113262475D01*
X76708646Y-113872419D02*
X77327693Y-113872419D01*
X77327693Y-113872419D02*
X76994360Y-114253371D01*
X76994360Y-114253371D02*
X77137217Y-114253371D01*
X77137217Y-114253371D02*
X77232455Y-114300990D01*
X77232455Y-114300990D02*
X77280074Y-114348609D01*
X77280074Y-114348609D02*
X77327693Y-114443847D01*
X77327693Y-114443847D02*
X77327693Y-114681942D01*
X77327693Y-114681942D02*
X77280074Y-114777180D01*
X77280074Y-114777180D02*
X77232455Y-114824800D01*
X77232455Y-114824800D02*
X77137217Y-114872419D01*
X77137217Y-114872419D02*
X76851503Y-114872419D01*
X76851503Y-114872419D02*
X76756265Y-114824800D01*
X76756265Y-114824800D02*
X76708646Y-114777180D01*
X77661027Y-113872419D02*
X78280074Y-113872419D01*
X78280074Y-113872419D02*
X77946741Y-114253371D01*
X77946741Y-114253371D02*
X78089598Y-114253371D01*
X78089598Y-114253371D02*
X78184836Y-114300990D01*
X78184836Y-114300990D02*
X78232455Y-114348609D01*
X78232455Y-114348609D02*
X78280074Y-114443847D01*
X78280074Y-114443847D02*
X78280074Y-114681942D01*
X78280074Y-114681942D02*
X78232455Y-114777180D01*
X78232455Y-114777180D02*
X78184836Y-114824800D01*
X78184836Y-114824800D02*
X78089598Y-114872419D01*
X78089598Y-114872419D02*
X77803884Y-114872419D01*
X77803884Y-114872419D02*
X77708646Y-114824800D01*
X77708646Y-114824800D02*
X77661027Y-114777180D01*
X76708646Y-103152531D02*
X77327693Y-103152531D01*
X77327693Y-103152531D02*
X76994360Y-103533483D01*
X76994360Y-103533483D02*
X77137217Y-103533483D01*
X77137217Y-103533483D02*
X77232455Y-103581102D01*
X77232455Y-103581102D02*
X77280074Y-103628721D01*
X77280074Y-103628721D02*
X77327693Y-103723959D01*
X77327693Y-103723959D02*
X77327693Y-103962054D01*
X77327693Y-103962054D02*
X77280074Y-104057292D01*
X77280074Y-104057292D02*
X77232455Y-104104912D01*
X77232455Y-104104912D02*
X77137217Y-104152531D01*
X77137217Y-104152531D02*
X76851503Y-104152531D01*
X76851503Y-104152531D02*
X76756265Y-104104912D01*
X76756265Y-104104912D02*
X76708646Y-104057292D01*
X78184836Y-103152531D02*
X77994360Y-103152531D01*
X77994360Y-103152531D02*
X77899122Y-103200150D01*
X77899122Y-103200150D02*
X77851503Y-103247769D01*
X77851503Y-103247769D02*
X77756265Y-103390626D01*
X77756265Y-103390626D02*
X77708646Y-103581102D01*
X77708646Y-103581102D02*
X77708646Y-103962054D01*
X77708646Y-103962054D02*
X77756265Y-104057292D01*
X77756265Y-104057292D02*
X77803884Y-104104912D01*
X77803884Y-104104912D02*
X77899122Y-104152531D01*
X77899122Y-104152531D02*
X78089598Y-104152531D01*
X78089598Y-104152531D02*
X78184836Y-104104912D01*
X78184836Y-104104912D02*
X78232455Y-104057292D01*
X78232455Y-104057292D02*
X78280074Y-103962054D01*
X78280074Y-103962054D02*
X78280074Y-103723959D01*
X78280074Y-103723959D02*
X78232455Y-103628721D01*
X78232455Y-103628721D02*
X78184836Y-103581102D01*
X78184836Y-103581102D02*
X78089598Y-103533483D01*
X78089598Y-103533483D02*
X77899122Y-103533483D01*
X77899122Y-103533483D02*
X77803884Y-103581102D01*
X77803884Y-103581102D02*
X77756265Y-103628721D01*
X77756265Y-103628721D02*
X77708646Y-103723959D01*
X76708646Y-104762475D02*
X77327693Y-104762475D01*
X77327693Y-104762475D02*
X76994360Y-105143427D01*
X76994360Y-105143427D02*
X77137217Y-105143427D01*
X77137217Y-105143427D02*
X77232455Y-105191046D01*
X77232455Y-105191046D02*
X77280074Y-105238665D01*
X77280074Y-105238665D02*
X77327693Y-105333903D01*
X77327693Y-105333903D02*
X77327693Y-105571998D01*
X77327693Y-105571998D02*
X77280074Y-105667236D01*
X77280074Y-105667236D02*
X77232455Y-105714856D01*
X77232455Y-105714856D02*
X77137217Y-105762475D01*
X77137217Y-105762475D02*
X76851503Y-105762475D01*
X76851503Y-105762475D02*
X76756265Y-105714856D01*
X76756265Y-105714856D02*
X76708646Y-105667236D01*
X77803884Y-105762475D02*
X77994360Y-105762475D01*
X77994360Y-105762475D02*
X78089598Y-105714856D01*
X78089598Y-105714856D02*
X78137217Y-105667236D01*
X78137217Y-105667236D02*
X78232455Y-105524379D01*
X78232455Y-105524379D02*
X78280074Y-105333903D01*
X78280074Y-105333903D02*
X78280074Y-104952951D01*
X78280074Y-104952951D02*
X78232455Y-104857713D01*
X78232455Y-104857713D02*
X78184836Y-104810094D01*
X78184836Y-104810094D02*
X78089598Y-104762475D01*
X78089598Y-104762475D02*
X77899122Y-104762475D01*
X77899122Y-104762475D02*
X77803884Y-104810094D01*
X77803884Y-104810094D02*
X77756265Y-104857713D01*
X77756265Y-104857713D02*
X77708646Y-104952951D01*
X77708646Y-104952951D02*
X77708646Y-105191046D01*
X77708646Y-105191046D02*
X77756265Y-105286284D01*
X77756265Y-105286284D02*
X77803884Y-105333903D01*
X77803884Y-105333903D02*
X77899122Y-105381522D01*
X77899122Y-105381522D02*
X78089598Y-105381522D01*
X78089598Y-105381522D02*
X78184836Y-105333903D01*
X78184836Y-105333903D02*
X78232455Y-105286284D01*
X78232455Y-105286284D02*
X78280074Y-105191046D01*
X76708646Y-106372419D02*
X77327693Y-106372419D01*
X77327693Y-106372419D02*
X76994360Y-106753371D01*
X76994360Y-106753371D02*
X77137217Y-106753371D01*
X77137217Y-106753371D02*
X77232455Y-106800990D01*
X77232455Y-106800990D02*
X77280074Y-106848609D01*
X77280074Y-106848609D02*
X77327693Y-106943847D01*
X77327693Y-106943847D02*
X77327693Y-107181942D01*
X77327693Y-107181942D02*
X77280074Y-107277180D01*
X77280074Y-107277180D02*
X77232455Y-107324800D01*
X77232455Y-107324800D02*
X77137217Y-107372419D01*
X77137217Y-107372419D02*
X76851503Y-107372419D01*
X76851503Y-107372419D02*
X76756265Y-107324800D01*
X76756265Y-107324800D02*
X76708646Y-107277180D01*
X78184836Y-106705752D02*
X78184836Y-107372419D01*
X77946741Y-106324800D02*
X77708646Y-107039085D01*
X77708646Y-107039085D02*
X78327693Y-107039085D01*
D12*
X78844819Y-117131904D02*
X79654342Y-117131904D01*
X79654342Y-117131904D02*
X79749580Y-117084285D01*
X79749580Y-117084285D02*
X79797200Y-117036666D01*
X79797200Y-117036666D02*
X79844819Y-116941428D01*
X79844819Y-116941428D02*
X79844819Y-116750952D01*
X79844819Y-116750952D02*
X79797200Y-116655714D01*
X79797200Y-116655714D02*
X79749580Y-116608095D01*
X79749580Y-116608095D02*
X79654342Y-116560476D01*
X79654342Y-116560476D02*
X78844819Y-116560476D01*
X79844819Y-115560476D02*
X79844819Y-116131904D01*
X79844819Y-115846190D02*
X78844819Y-115846190D01*
X78844819Y-115846190D02*
X78987676Y-115941428D01*
X78987676Y-115941428D02*
X79082914Y-116036666D01*
X79082914Y-116036666D02*
X79130533Y-116131904D01*
D13*
X83240000Y-129735000D02*
X83240000Y-128265000D01*
X83240000Y-128265000D02*
X80780000Y-128265000D01*
X80780000Y-129735000D02*
X83240000Y-129735000D01*
X81245276Y-125477500D02*
X81754724Y-125477500D01*
X81245276Y-126522500D02*
X81754724Y-126522500D01*
X103670000Y-98670000D02*
X105000000Y-98670000D01*
X103670000Y-100000000D02*
X103670000Y-98670000D01*
X103670000Y-101270000D02*
X103670000Y-136890000D01*
X103670000Y-101270000D02*
X106330000Y-101270000D01*
X103670000Y-136890000D02*
X106330000Y-136890000D01*
X106330000Y-101270000D02*
X106330000Y-136890000D01*
X73670000Y-98670000D02*
X75000000Y-98670000D01*
X73670000Y-100000000D02*
X73670000Y-98670000D01*
X73670000Y-101270000D02*
X73670000Y-136890000D01*
X73670000Y-101270000D02*
X76330000Y-101270000D01*
X73670000Y-136890000D02*
X76330000Y-136890000D01*
X76330000Y-101270000D02*
X76330000Y-136890000D01*
X88000000Y-124090000D02*
X91760000Y-124090000D01*
X88000000Y-130910000D02*
X91760000Y-130910000D01*
X91760000Y-124090000D02*
X91760000Y-125350000D01*
X91760000Y-130910000D02*
X91760000Y-129650000D01*
X86720000Y-124190000D02*
X86480000Y-123860000D01*
X86960000Y-123860000D01*
X86720000Y-124190000D01*
G36*
X86720000Y-124190000D02*
G01*
X86480000Y-123860000D01*
X86960000Y-123860000D01*
X86720000Y-124190000D01*
G37*
X97095276Y-125477500D02*
X97604724Y-125477500D01*
X97095276Y-126522500D02*
X97604724Y-126522500D01*
X97095276Y-128390000D02*
X97604724Y-128390000D01*
X97095276Y-129435000D02*
X97604724Y-129435000D01*
X77990000Y-100646267D02*
X77990000Y-100353733D01*
X79010000Y-100646267D02*
X79010000Y-100353733D01*
X77990000Y-134646267D02*
X77990000Y-134353733D01*
X79010000Y-134646267D02*
X79010000Y-134353733D01*
X99030000Y-134170000D02*
X99030000Y-135500000D01*
X97700000Y-134170000D02*
X99030000Y-134170000D01*
X96430000Y-134170000D02*
X81130000Y-134170000D01*
X96430000Y-134170000D02*
X96430000Y-136830000D01*
X81130000Y-134170000D02*
X81130000Y-136830000D01*
X96430000Y-136830000D02*
X81130000Y-136830000D01*
X80880000Y-92080000D02*
X80880000Y-98240000D01*
X80880000Y-92080000D02*
X99120000Y-92080000D01*
X80880000Y-117040000D02*
X80880000Y-117820000D01*
X80880000Y-117820000D02*
X81880000Y-117820000D01*
X99120000Y-92080000D02*
X99120000Y-98495000D01*
X99120000Y-117040000D02*
X99120000Y-117820000D01*
X99120000Y-117820000D02*
X98120000Y-117820000D01*
X80875000Y-98965000D02*
X80375000Y-98965000D01*
X80875000Y-98465000D01*
X80875000Y-98965000D01*
G36*
X80875000Y-98965000D02*
G01*
X80375000Y-98965000D01*
X80875000Y-98465000D01*
X80875000Y-98965000D01*
G37*
%LPC*%
D14*
X82455000Y-129000000D03*
X80705000Y-129000000D03*
D15*
X80587500Y-126000000D03*
X82412500Y-126000000D03*
D16*
X105000000Y-100000000D03*
D17*
X105000000Y-102540000D03*
X105000000Y-105080000D03*
X105000000Y-107620000D03*
X105000000Y-110160000D03*
X105000000Y-112700000D03*
X105000000Y-115240000D03*
X105000000Y-117780000D03*
X105000000Y-120320000D03*
X105000000Y-122860000D03*
X105000000Y-125400000D03*
X105000000Y-127940000D03*
X105000000Y-130480000D03*
X105000000Y-133020000D03*
X105000000Y-135560000D03*
D16*
X75000000Y-100000000D03*
D17*
X75000000Y-102540000D03*
X75000000Y-105080000D03*
X75000000Y-107620000D03*
X75000000Y-110160000D03*
X75000000Y-112700000D03*
X75000000Y-115240000D03*
X75000000Y-117780000D03*
X75000000Y-120320000D03*
X75000000Y-122860000D03*
X75000000Y-125400000D03*
X75000000Y-127940000D03*
X75000000Y-130480000D03*
X75000000Y-133020000D03*
X75000000Y-135560000D03*
D18*
X86700000Y-125200000D03*
X86700000Y-127500000D03*
D19*
X93000000Y-127500000D03*
D18*
X86700000Y-129800000D03*
D15*
X96437500Y-126000000D03*
X98262500Y-126000000D03*
X96437500Y-128912500D03*
X98262500Y-128912500D03*
D20*
X78500000Y-101362500D03*
X78500000Y-99637500D03*
X78500000Y-135362500D03*
X78500000Y-133637500D03*
D16*
X97700000Y-135500000D03*
D17*
X95160000Y-135500000D03*
X92620000Y-135500000D03*
X90080000Y-135500000D03*
X87540000Y-135500000D03*
X85000000Y-135500000D03*
X82460000Y-135500000D03*
D21*
X81250000Y-99690000D03*
X81250000Y-100960000D03*
X81250000Y-102230000D03*
X81250000Y-103500000D03*
X81250000Y-104770000D03*
X81250000Y-106040000D03*
X81250000Y-107310000D03*
X81250000Y-108580000D03*
X81250000Y-109850000D03*
X81250000Y-111120000D03*
X81250000Y-112390000D03*
X81250000Y-113660000D03*
X81250000Y-114930000D03*
X81250000Y-116200000D03*
D22*
X84290000Y-117450000D03*
X85560000Y-117450000D03*
X86830000Y-117450000D03*
X88100000Y-117450000D03*
X89370000Y-117450000D03*
X90640000Y-117450000D03*
X91910000Y-117450000D03*
X93180000Y-117450000D03*
X94450000Y-117450000D03*
X95720000Y-117450000D03*
D21*
X98750000Y-116200000D03*
X98750000Y-114930000D03*
X98750000Y-113660000D03*
X98750000Y-112390000D03*
X98750000Y-111120000D03*
X98750000Y-109850000D03*
X98750000Y-108580000D03*
X98750000Y-107310000D03*
X98750000Y-106040000D03*
X98750000Y-104770000D03*
X98750000Y-103500000D03*
X98750000Y-102230000D03*
X98750000Y-100960000D03*
X98750000Y-99690000D03*
D23*
X87795000Y-106267500D03*
X87795000Y-107792500D03*
X88557500Y-105505000D03*
D24*
X88557500Y-107030000D03*
D23*
X88557500Y-108555000D03*
X89320000Y-106267500D03*
D25*
X89320000Y-107030000D03*
D23*
X89320000Y-107792500D03*
X90082500Y-105505000D03*
D24*
X90082500Y-107030000D03*
D23*
X90082500Y-108555000D03*
X90845000Y-106267500D03*
X90845000Y-107792500D03*
X98000000Y-133000000D03*
X81500000Y-132000000D03*
X77000000Y-124500000D03*
X79500000Y-120000000D03*
X77000000Y-99000000D03*
X101500000Y-99000000D03*
X99500000Y-119500000D03*
X100500000Y-129000000D03*
X95000000Y-122500000D03*
X95000000Y-130500000D03*
X89500000Y-132650000D03*
X99000012Y-122959606D03*
X99000000Y-121000000D03*
X85500000Y-121000000D03*
X81500000Y-122999994D03*
%LPD*%
M02*
